<svg width="512" height="512" version="1.1" xmlns="http://www.w3.org/2000/svg" desc="Created with imagetracer.js version 1.2.6" ><path fill="rgb(211,211,211)" stroke="rgb(211,211,211)" stroke-width="1" opacity="1" d="M 244.5 53 L 247 53.5 L 244.5 54 L 244.5 53 Z " /><path fill="rgb(211,211,211)" stroke="rgb(211,211,211)" stroke-width="1" opacity="1" d="M 230.5 54 L 237 54.5 L 230.5 55 L 230.5 54 Z " /><path fill="rgb(211,211,211)" stroke="rgb(211,211,211)" stroke-width="1" opacity="1" d="M 293.5 54 L 300 54.5 L 293.5 55 L 293.5 54 Z " /><path fill="rgb(211,211,211)" stroke="rgb(211,211,211)" stroke-width="1" opacity="1" d="M 223.5 55 L 229 55.5 L 223.5 56 L 223.5 55 Z " /><path fill="rgb(211,211,211)" stroke="rgb(211,211,211)" stroke-width="1" opacity="1" d="M 301.5 55 L 306 55.5 L 301.5 56 L 301.5 55 Z " /><path fill="rgb(211,211,211)" stroke="rgb(211,211,211)" stroke-width="1" opacity="1" d="M 210.5 57 L 214 57.5 L 210.5 58 L 210.5 57 Z " /><path fill="rgb(211,211,211)" stroke="rgb(211,211,211)" stroke-width="1" opacity="1" d="M 314.5 57 L 318 57.5 L 314.5 58 L 314.5 57 Z " /><path fill="rgb(211,211,211)" stroke="rgb(211,211,211)" stroke-width="1" opacity="1" d="M 195.5 60 L 199 60.5 L 195.5 61 L 195.5 60 Z " /><path fill="rgb(211,211,211)" stroke="rgb(211,211,211)" stroke-width="1" opacity="1" d="M 328.5 60 L 331 60.5 L 328.5 61 L 328.5 60 Z " /><path fill="rgb(211,211,211)" stroke="rgb(211,211,211)" stroke-width="1" opacity="1" d="M 187.5 62 L 190 62.5 L 187.5 63 L 187.5 62 Z " /><path fill="rgb(211,211,211)" stroke="rgb(211,211,211)" stroke-width="1" opacity="1" d="M 336.5 62 L 341 63.5 L 339.5 64 L 336.5 63 L 336.5 62 Z " /><path fill="rgb(211,211,211)" stroke="rgb(211,211,211)" stroke-width="1" opacity="1" d="M 183.5 63 L 186 63.5 L 183.5 64 L 183.5 63 Z " /><path fill="rgb(211,211,211)" stroke="rgb(211,211,211)" stroke-width="1" opacity="1" d="M 176.5 65 L 179 65.5 L 176.5 66 L 176.5 65 Z " /><path fill="rgb(211,211,211)" stroke="rgb(211,211,211)" stroke-width="1" opacity="1" d="M 363.5 72 L 366 73.5 L 364.5 74 L 363.5 72 Z " /><path fill="rgb(211,211,211)" stroke="rgb(211,211,211)" stroke-width="1" opacity="1" d="M 374.5 77 L 375.5 79 L 374.5 77 Z " /><path fill="rgb(211,211,211)" stroke="rgb(211,211,211)" stroke-width="1" opacity="1" d="M 141.5 78 L 143 78.5 L 139.5 80 L 139.5 79 L 141.5 78 Z " /><path fill="rgb(211,211,211)" stroke="rgb(211,211,211)" stroke-width="1" opacity="1" d="M 377.5 79 L 380 80.5 L 378.5 80 L 377.5 79 Z " /><path fill="rgb(211,211,211)" stroke="rgb(211,211,211)" stroke-width="1" opacity="1" d="M 385.5 83 L 389 85.5 L 387.5 85 L 385.5 83 Z " /><path fill="rgb(211,211,211)" stroke="rgb(211,211,211)" stroke-width="1" opacity="1" d="M 390.5 86 L 394 88.5 L 392.5 88 L 390.5 86 Z " /><path fill="rgb(211,211,211)" stroke="rgb(211,211,211)" stroke-width="1" opacity="1" d="M 121.5 88 L 120.5 90 L 118.5 91 L 119.5 89 L 121.5 88 Z " /><path fill="rgb(211,211,211)" stroke="rgb(211,211,211)" stroke-width="1" opacity="1" d="M 116.5 91 L 115.5 93 L 113.5 94 L 114.5 92 L 116.5 91 Z " /><path fill="rgb(211,211,211)" stroke="rgb(211,211,211)" stroke-width="1" opacity="1" d="M 398.5 91 L 403 94.5 L 400.5 93 L 398.5 91 Z " /><path fill="rgb(211,211,211)" stroke="rgb(211,211,211)" stroke-width="1" opacity="1" d="M 111.5 94 L 110.5 96 L 111.5 94 Z " /><path fill="rgb(211,211,211)" stroke="rgb(211,211,211)" stroke-width="1" opacity="1" d="M 404.5 95 L 406.5 98 L 404.5 95 Z " /><path fill="rgb(211,211,211)" stroke="rgb(211,211,211)" stroke-width="1" opacity="1" d="M 108.5 96 L 107.5 98 L 105.5 99 L 106.5 97 L 108.5 96 Z " /><path fill="rgb(211,211,211)" stroke="rgb(211,211,211)" stroke-width="1" opacity="1" d="M 408.5 98 L 415 103.5 L 411.5 101 L 408.5 98 Z " /><path fill="rgb(211,211,211)" stroke="rgb(211,211,211)" stroke-width="1" opacity="1" d="M 99.5 102 L 98.5 104 L 99.5 102 Z " /><path fill="rgb(211,211,211)" stroke="rgb(211,211,211)" stroke-width="1" opacity="1" d="M 95.5 105 L 94.5 107 L 95.5 105 Z " /><path fill="rgb(211,211,211)" stroke="rgb(211,211,211)" stroke-width="1" opacity="1" d="M 417.5 105 L 420.5 109 L 417.5 105 Z " /><path fill="rgb(211,211,211)" stroke="rgb(211,211,211)" stroke-width="1" opacity="1" d="M 90.5 109 L 86.5 114 L 90.5 109 Z " /><path fill="rgb(211,211,211)" stroke="rgb(211,211,211)" stroke-width="1" opacity="1" d="M 422.5 110 L 439 125.5 L 423.5 111 L 422.5 110 Z " /><path fill="rgb(211,211,211)" stroke="rgb(211,211,211)" stroke-width="1" opacity="1" d="M 84.5 114 L 68.5 131 L 84.5 114 Z " /><path fill="rgb(211,211,211)" stroke="rgb(211,211,211)" stroke-width="1" opacity="1" d="M 440.5 128 L 443.5 132 L 440.5 128 Z " /><path fill="rgb(211,211,211)" stroke="rgb(211,211,211)" stroke-width="1" opacity="1" d="M 65.5 134 L 64.5 136 L 65.5 134 Z " /><path fill="rgb(211,211,211)" stroke="rgb(211,211,211)" stroke-width="1" opacity="1" d="M 63.5 137 L 61.5 140 L 63.5 137 Z " /><path fill="rgb(211,211,211)" stroke="rgb(211,211,211)" stroke-width="1" opacity="1" d="M 448.5 137 L 451 140.5 L 448 138.5 L 448.5 137 Z " /><path fill="rgb(211,211,211)" stroke="rgb(211,211,211)" stroke-width="1" opacity="1" d="M 60.5 141 L 59.5 143 L 60.5 141 Z " /><path fill="rgb(211,211,211)" stroke="rgb(211,211,211)" stroke-width="1" opacity="1" d="M 451.5 142 L 452.5 144 L 451.5 142 Z " /><path fill="rgb(211,211,211)" stroke="rgb(211,211,211)" stroke-width="1" opacity="1" d="M 56.5 147 L 56 148.5 L 54.5 151 L 55 149.5 L 56.5 147 Z " /><path fill="rgb(211,211,211)" stroke="rgb(211,211,211)" stroke-width="1" opacity="1" d="M 457.5 151 L 458.5 153 L 457.5 151 Z " /><path fill="rgb(211,211,211)" stroke="rgb(211,211,211)" stroke-width="1" opacity="1" d="M 460.5 156 L 461.5 158 L 460.5 156 Z " /><path fill="rgb(211,211,211)" stroke="rgb(211,211,211)" stroke-width="1" opacity="1" d="M 189.5 171 L 201 171.5 L 189.5 172 L 189.5 171 Z " /><path fill="rgb(211,211,211)" stroke="rgb(211,211,211)" stroke-width="1" opacity="1" d="M 203.5 171 L 205 172.5 L 205 182.5 L 204 182.5 L 204 172.5 L 203.5 171 Z " /><path fill="rgb(211,211,211)" stroke="rgb(211,211,211)" stroke-width="1" opacity="1" d="M 173.5 172 L 185 172.5 L 173.5 173 L 172 174.5 L 171.5 185 L 171 173 L 173.5 172 Z " /><path fill="rgb(211,211,211)" stroke="rgb(211,211,211)" stroke-width="1" opacity="1" d="M 60.5 180 L 71 180.5 L 60 181 L 59.5 190 L 59 181.5 L 60.5 180 Z " /><path fill="rgb(211,211,211)" stroke="rgb(211,211,211)" stroke-width="1" opacity="1" d="M 73.5 182 L 86 193.5 L 79.5 188 L 73.5 182 Z " /><path fill="rgb(211,211,211)" stroke="rgb(211,211,211)" stroke-width="1" opacity="1" d="M 39.5 184 L 40 186.5 L 38.5 190 L 38 187.5 L 39.5 184 Z " /><path fill="rgb(211,211,211)" stroke="rgb(211,211,211)" stroke-width="1" opacity="1" d="M 172.5 186 L 173 197.5 L 172 197.5 L 172.5 186 Z " /><path fill="rgb(211,211,211)" stroke="rgb(211,211,211)" stroke-width="1" opacity="1" d="M 475.5 188 L 476 190.5 L 475 190.5 L 475.5 188 Z " /><path fill="rgb(211,211,211)" stroke="rgb(211,211,211)" stroke-width="1" opacity="1" d="M 205.5 190 L 206 195.5 L 205 195.5 L 205.5 190 Z " /><path fill="rgb(211,211,211)" stroke="rgb(211,211,211)" stroke-width="1" opacity="1" d="M 60.5 192 L 61 201.5 L 60 201.5 L 60.5 192 Z " /><path fill="rgb(211,211,211)" stroke="rgb(211,211,211)" stroke-width="1" opacity="1" d="M 36.5 194 L 37 196.5 L 36 196.5 L 36.5 194 Z " /><path fill="rgb(211,211,211)" stroke="rgb(211,211,211)" stroke-width="1" opacity="1" d="M 87.5 194 L 93.5 201 L 87.5 194 Z " /><path fill="rgb(211,211,211)" stroke="rgb(211,211,211)" stroke-width="1" opacity="1" d="M 478.5 198 L 479 200.5 L 478 200.5 L 478.5 198 Z " /><path fill="rgb(211,211,211)" stroke="rgb(211,211,211)" stroke-width="1" opacity="1" d="M 173.5 201 L 174 209.5 L 173 209.5 L 173.5 201 Z " /><path fill="rgb(211,211,211)" stroke="rgb(211,211,211)" stroke-width="1" opacity="1" d="M 206.5 201 L 207 211.5 L 206 211.5 L 206.5 201 Z " /><path fill="rgb(211,211,211)" stroke="rgb(211,211,211)" stroke-width="1" opacity="1" d="M 97.5 203 L 117 220.5 L 110.5 215 Q 101.9 209.8 97.5 203 Z " /><path fill="rgb(211,211,211)" stroke="rgb(211,211,211)" stroke-width="1" opacity="1" d="M 33.5 207 L 34 210.5 L 33 210.5 L 33.5 207 Z " /><path fill="rgb(211,211,211)" stroke="rgb(211,211,211)" stroke-width="1" opacity="1" d="M 61.5 207 L 62 213.5 L 61 213.5 L 61.5 207 Z " /><path fill="rgb(211,211,211)" stroke="rgb(211,211,211)" stroke-width="1" opacity="1" d="M 480.5 207 L 481 210.5 L 480 210.5 L 480.5 207 Z " /><path fill="rgb(211,211,211)" stroke="rgb(211,211,211)" stroke-width="1" opacity="1" d="M 403.5 209 L 425 209.5 L 403.5 210 L 400.5 211 L 400.5 210 L 403.5 209 Z " /><path fill="rgb(211,211,211)" stroke="rgb(211,211,211)" stroke-width="1" opacity="1" d="M 395.5 211 L 398 211.5 Q 381.5 216 372 227.5 L 368.5 232 L 371 228.5 L 376.5 222 Q 384.3 214.8 395.5 211 Z " /><path fill="rgb(211,211,211)" stroke="rgb(211,211,211)" stroke-width="1" opacity="1" d="M 429.5 211 L 432 211.5 L 429.5 212 L 429.5 211 Z " /><path fill="rgb(211,211,211)" stroke="rgb(211,211,211)" stroke-width="1" opacity="1" d="M 433.5 212 L 437 213.5 L 435.5 214 L 433.5 212 Z " /><path fill="rgb(211,211,211)" stroke="rgb(211,211,211)" stroke-width="1" opacity="1" d="M 481.5 212 L 482 214.5 L 481 214.5 L 481.5 212 Z " /><path fill="rgb(211,211,211)" stroke="rgb(211,211,211)" stroke-width="1" opacity="1" d="M 174.5 214 L 175 227.5 L 174 227.5 L 174.5 214 Z " /><path fill="rgb(211,211,211)" stroke="rgb(211,211,211)" stroke-width="1" opacity="1" d="M 207.5 215 L 208 225.5 L 207 225.5 L 207.5 215 Z " /><path fill="rgb(211,211,211)" stroke="rgb(211,211,211)" stroke-width="1" opacity="1" d="M 440.5 215 L 448 220.5 L 444.5 218 Q 440.5 217.5 440.5 215 Z " /><path fill="rgb(211,211,211)" stroke="rgb(211,211,211)" stroke-width="1" opacity="1" d="M 278.5 219 L 286 219.5 L 275.5 221 L 275.5 220 L 278.5 219 Z " /><path fill="rgb(211,211,211)" stroke="rgb(211,211,211)" stroke-width="1" opacity="1" d="M 296.5 219 L 302 219.5 L 296.5 220 L 296.5 219 Z " /><path fill="rgb(211,211,211)" stroke="rgb(211,211,211)" stroke-width="1" opacity="1" d="M 31.5 220 L 32 226.5 L 31 226.5 L 31.5 220 Z " /><path fill="rgb(211,211,211)" stroke="rgb(211,211,211)" stroke-width="1" opacity="1" d="M 62.5 220 L 63 232.5 L 62 232.5 L 62.5 220 Z " /><path fill="rgb(211,211,211)" stroke="rgb(211,211,211)" stroke-width="1" opacity="1" d="M 449.5 221 L 460 232.5 L 457 230.5 L 449.5 221 Z " /><path fill="rgb(211,211,211)" stroke="rgb(211,211,211)" stroke-width="1" opacity="1" d="M 119.5 222 L 178 273.5 L 171.5 268 L 124.5 228 L 119.5 222 Z " /><path fill="rgb(211,211,211)" stroke="rgb(211,211,211)" stroke-width="1" opacity="1" d="M 268.5 222 L 271 222.5 L 266.5 224 L 266.5 223 L 268.5 222 Z " /><path fill="rgb(211,211,211)" stroke="rgb(211,211,211)" stroke-width="1" opacity="1" d="M 310.5 222 L 317 225.5 L 315.5 225 L 310.5 223 L 310.5 222 Z " /><path fill="rgb(211,211,211)" stroke="rgb(211,211,211)" stroke-width="1" opacity="1" d="M 260.5 226 L 259.5 228 L 247 238.5 L 241.5 247 L 242 245.5 Q 246.3 235.8 254.5 230 L 260.5 226 Z " /><path fill="rgb(211,211,211)" stroke="rgb(211,211,211)" stroke-width="1" opacity="1" d="M 318.5 226 L 332 238.5 L 338 250.5 L 337 250.5 Q 332 236 320.5 228 L 318.5 226 Z " /><path fill="rgb(211,211,211)" stroke="rgb(211,211,211)" stroke-width="1" opacity="1" d="M 483.5 226 L 484 238.5 L 483 238.5 L 483.5 226 Z " /><path fill="rgb(211,211,211)" stroke="rgb(211,211,211)" stroke-width="1" opacity="1" d="M 30.5 228 L 31 254.5 L 30 254.5 L 30.5 228 Z " /><path fill="rgb(211,211,211)" stroke="rgb(211,211,211)" stroke-width="1" opacity="1" d="M 175.5 229 L 176 239.5 L 175 239.5 L 175.5 229 Z " /><path fill="rgb(211,211,211)" stroke="rgb(211,211,211)" stroke-width="1" opacity="1" d="M 208.5 232 L 209 238.5 L 208 238.5 L 208.5 232 Z " /><path fill="rgb(211,211,211)" stroke="rgb(211,211,211)" stroke-width="1" opacity="1" d="M 367.5 233 L 367 234.5 L 365.5 237 L 366 235.5 L 367.5 233 Z " /><path fill="rgb(211,211,211)" stroke="rgb(211,211,211)" stroke-width="1" opacity="1" d="M 460.5 234 L 464 240.5 L 463 240.5 L 460.5 234 Z " /><path fill="rgb(211,211,211)" stroke="rgb(211,211,211)" stroke-width="1" opacity="1" d="M 63.5 236 L 64 243.5 L 63 243.5 L 63.5 236 Z " /><path fill="rgb(211,211,211)" stroke="rgb(211,211,211)" stroke-width="1" opacity="1" d="M 406.5 236 L 411 236.5 L 406.5 237 L 406.5 236 Z " /><path fill="rgb(211,211,211)" stroke="rgb(211,211,211)" stroke-width="1" opacity="1" d="M 412.5 236 L 421 236.5 L 412.5 237 L 412.5 236 Z " /><path fill="rgb(211,211,211)" stroke="rgb(211,211,211)" stroke-width="1" opacity="1" d="M 403.5 237 L 405 237.5 L 401.5 239 L 401.5 238 L 403.5 237 Z " /><path fill="rgb(211,211,211)" stroke="rgb(211,211,211)" stroke-width="1" opacity="1" d="M 422.5 237 L 426 238.5 L 424.5 239 L 422.5 237 Z " /><path fill="rgb(211,211,211)" stroke="rgb(211,211,211)" stroke-width="1" opacity="1" d="M 364.5 238 L 364 239.5 L 362.5 243 L 362 241.5 L 364.5 238 Z " /><path fill="rgb(211,211,211)" stroke="rgb(211,211,211)" stroke-width="1" opacity="1" d="M 399.5 239 L 398.5 241 L 392 246.5 L 387.5 256 L 387 254.5 Q 390.2 245.2 397.5 240 L 399.5 239 Z " /><path fill="rgb(211,211,211)" stroke="rgb(211,211,211)" stroke-width="1" opacity="1" d="M 427.5 239 L 436 246.5 L 439 253.5 L 438 253.5 Q 435.9 245.2 429.5 241 L 427.5 239 Z " /><path fill="rgb(211,211,211)" stroke="rgb(211,211,211)" stroke-width="1" opacity="1" d="M 96 241 L 110 252.5 L 103.5 247 L 97.5 242 L 96.5 245 L 96 241 Z " /><path fill="rgb(211,211,211)" stroke="rgb(211,211,211)" stroke-width="1" opacity="1" d="M 464.5 242 L 466 245.5 L 465 245.5 L 464.5 242 Z " /><path fill="rgb(211,211,211)" stroke="rgb(211,211,211)" stroke-width="1" opacity="1" d="M 209.5 243 L 210 254.5 L 209 254.5 L 209.5 243 Z " /><path fill="rgb(211,211,211)" stroke="rgb(211,211,211)" stroke-width="1" opacity="1" d="M 176.5 244 L 177 254.5 L 176 254.5 L 176.5 244 Z " /><path fill="rgb(211,211,211)" stroke="rgb(211,211,211)" stroke-width="1" opacity="1" d="M 284.5 244 L 296 244.5 L 284.5 245 L 284.5 244 Z " /><path fill="rgb(211,211,211)" stroke="rgb(211,211,211)" stroke-width="1" opacity="1" d="M 280.5 245 L 283 245.5 L 276.5 248 L 276.5 247 L 280.5 245 Z " /><path fill="rgb(211,211,211)" stroke="rgb(211,211,211)" stroke-width="1" opacity="1" d="M 297.5 245 Q 305.4 247.1 309 253.5 L 310 256.5 L 308 255.5 L 308 253.5 L 302.5 248 L 297.5 246 L 297.5 245 Z " /><path fill="rgb(211,211,211)" stroke="rgb(211,211,211)" stroke-width="1" opacity="1" d="M 97.5 247 L 98 259.5 L 97 259.5 L 97.5 247 Z " /><path fill="rgb(211,211,211)" stroke="rgb(211,211,211)" stroke-width="1" opacity="1" d="M 360.5 247 L 361 249.5 L 360 249.5 L 360.5 247 Z " /><path fill="rgb(211,211,211)" stroke="rgb(211,211,211)" stroke-width="1" opacity="1" d="M 240.5 248 L 241 249.5 L 238.5 255 L 238 252.5 L 240.5 248 Z " /><path fill="rgb(211,211,211)" stroke="rgb(211,211,211)" stroke-width="1" opacity="1" d="M 273.5 249 L 273 250.5 L 268.5 259 L 268 256.5 L 273.5 249 Z " /><path fill="rgb(211,211,211)" stroke="rgb(211,211,211)" stroke-width="1" opacity="1" d="M 483.5 249 L 484 259.5 L 483 259.5 L 483.5 249 Z " /><path fill="rgb(211,211,211)" stroke="rgb(211,211,211)" stroke-width="1" opacity="1" d="M 64.5 250 L 65 260.5 L 64 260.5 L 64.5 250 Z " /><path fill="rgb(211,211,211)" stroke="rgb(211,211,211)" stroke-width="1" opacity="1" d="M 467.5 250 L 468 252.5 L 467 252.5 L 467.5 250 Z " /><path fill="rgb(211,211,211)" stroke="rgb(211,211,211)" stroke-width="1" opacity="1" d="M 359.5 251 L 360 254.5 L 359 254.5 L 359.5 251 Z " /><path fill="rgb(211,211,211)" stroke="rgb(211,211,211)" stroke-width="1" opacity="1" d="M 111.5 253 L 125 265.5 L 119.5 261 L 111.5 253 Z " /><path fill="rgb(211,211,211)" stroke="rgb(211,211,211)" stroke-width="1" opacity="1" d="M 339.5 255 L 340 257.5 L 339 257.5 L 339.5 255 Z " /><path fill="rgb(211,211,211)" stroke="rgb(211,211,211)" stroke-width="1" opacity="1" d="M 468.5 255 L 469 265.5 L 468 265.5 L 468.5 255 Z " /><path fill="rgb(211,211,211)" stroke="rgb(211,211,211)" stroke-width="1" opacity="1" d="M 237.5 256 L 238 258.5 L 237 258.5 L 237.5 256 Z " /><path fill="rgb(211,211,211)" stroke="rgb(211,211,211)" stroke-width="1" opacity="1" d="M 358.5 256 L 360 276.5 L 359 276.5 Q 356.2 268.1 358.5 256 Z " /><path fill="rgb(211,211,211)" stroke="rgb(211,211,211)" stroke-width="1" opacity="1" d="M 31.5 257 L 32 263.5 L 31 263.5 L 31.5 257 Z " /><path fill="rgb(211,211,211)" stroke="rgb(211,211,211)" stroke-width="1" opacity="1" d="M 177.5 257 L 178 269.5 L 177 269.5 L 177.5 257 Z " /><path fill="rgb(211,211,211)" stroke="rgb(211,211,211)" stroke-width="1" opacity="1" d="M 386.5 258 L 387 262.5 L 386 262.5 L 386.5 258 Z " /><path fill="rgb(211,211,211)" stroke="rgb(211,211,211)" stroke-width="1" opacity="1" d="M 440.5 258 L 441 271.5 L 440 271.5 L 440.5 258 Z " /><path fill="rgb(211,211,211)" stroke="rgb(211,211,211)" stroke-width="1" opacity="1" d="M 340.5 259 L 341 262.5 L 340 262.5 L 340.5 259 Z " /><path fill="rgb(211,211,211)" stroke="rgb(211,211,211)" stroke-width="1" opacity="1" d="M 236.5 260 L 237 263.5 L 236 264.5 L 235.5 279 L 235 264.5 L 236.5 260 Z " /><path fill="rgb(211,211,211)" stroke="rgb(211,211,211)" stroke-width="1" opacity="1" d="M 296.5 261 L 302 261.5 L 296.5 262 L 296.5 261 Z " /><path fill="rgb(211,211,211)" stroke="rgb(211,211,211)" stroke-width="1" opacity="1" d="M 210.5 262 L 211 267.5 L 210 267.5 L 210.5 262 Z " /><path fill="rgb(211,211,211)" stroke="rgb(211,211,211)" stroke-width="1" opacity="1" d="M 267.5 262 L 272 263.5 L 268.5 264 L 267.5 262 Z " /><path fill="rgb(211,211,211)" stroke="rgb(211,211,211)" stroke-width="1" opacity="1" d="M 277.5 262 L 288 262.5 L 277.5 263 L 277.5 262 Z " /><path fill="rgb(211,211,211)" stroke="rgb(211,211,211)" stroke-width="1" opacity="1" d="M 65.5 263 L 66 274.5 L 65 274.5 L 65.5 263 Z " /><path fill="rgb(211,211,211)" stroke="rgb(211,211,211)" stroke-width="1" opacity="1" d="M 98.5 266 L 99 273.5 L 98 273.5 L 98.5 266 Z " /><path fill="rgb(211,211,211)" stroke="rgb(211,211,211)" stroke-width="1" opacity="1" d="M 126.5 266 L 132.5 273 L 126.5 266 Z " /><path fill="rgb(211,211,211)" stroke="rgb(211,211,211)" stroke-width="1" opacity="1" d="M 386.5 266 L 387 269.5 L 386 269.5 L 386.5 266 Z " /><path fill="rgb(211,211,211)" stroke="rgb(211,211,211)" stroke-width="1" opacity="1" d="M 341.5 267 L 342 271.5 L 341 271.5 L 341.5 267 Z " /><path fill="rgb(211,211,211)" stroke="rgb(211,211,211)" stroke-width="1" opacity="1" d="M 468.5 267 L 469 274.5 L 468 274.5 L 468.5 267 Z " /><path fill="rgb(211,211,211)" stroke="rgb(211,211,211)" stroke-width="1" opacity="1" d="M 481.5 269 L 482 272.5 L 481 272.5 L 481.5 269 Z " /><path fill="rgb(211,211,211)" stroke="rgb(211,211,211)" stroke-width="1" opacity="1" d="M 387.5 271 L 388 273.5 L 387 273.5 L 387.5 271 Z " /><path fill="rgb(211,211,211)" stroke="rgb(211,211,211)" stroke-width="1" opacity="1" d="M 33.5 272 L 34 274.5 L 33 274.5 L 33.5 272 Z " /><path fill="rgb(211,211,211)" stroke="rgb(211,211,211)" stroke-width="1" opacity="1" d="M 134.5 273 L 171 305.5 L 165.5 301 L 140.5 280 L 134.5 273 Z " /><path fill="rgb(211,211,211)" stroke="rgb(211,211,211)" stroke-width="1" opacity="1" d="M 211.5 273 L 212 281.5 L 211 281.5 L 211.5 273 Z " /><path fill="rgb(211,211,211)" stroke="rgb(211,211,211)" stroke-width="1" opacity="1" d="M 342.5 274 L 343 281 L 339 280.5 L 342 280 L 342.5 274 Z " /><path fill="rgb(211,211,211)" stroke="rgb(211,211,211)" stroke-width="1" opacity="1" d="M 480.5 274 L 481 276.5 L 480 276.5 L 480.5 274 Z " /><path fill="rgb(211,211,211)" stroke="rgb(211,211,211)" stroke-width="1" opacity="1" d="M 438.5 276 L 439 277.5 L 429.5 289 L 425.5 291 L 425.5 290 L 435 282.5 L 438.5 276 Z " /><path fill="rgb(211,211,211)" stroke="rgb(211,211,211)" stroke-width="1" opacity="1" d="M 467.5 276 L 468 279.5 L 467 279.5 L 467.5 276 Z " /><path fill="rgb(211,211,211)" stroke="rgb(211,211,211)" stroke-width="1" opacity="1" d="M 99.5 277 L 100 288.5 L 99 288.5 L 99.5 277 Z " /><path fill="rgb(211,211,211)" stroke="rgb(211,211,211)" stroke-width="1" opacity="1" d="M 389.5 278 L 392 281.5 L 390 280.5 L 389.5 278 Z " /><path fill="rgb(211,211,211)" stroke="rgb(211,211,211)" stroke-width="1" opacity="1" d="M 66.5 279 L 67 285.5 L 66 285.5 L 66.5 279 Z " /><path fill="rgb(211,211,211)" stroke="rgb(211,211,211)" stroke-width="1" opacity="1" d="M 360.5 279 L 365 291.5 L 373 303 L 380 308.5 L 376.5 306 L 371 301.5 L 363 289.5 L 360 281.5 L 360.5 279 Z " /><path fill="rgb(211,211,211)" stroke="rgb(211,211,211)" stroke-width="1" opacity="1" d="M 236.5 281 L 239 292.5 L 238 292.5 L 236 285.5 L 236.5 281 Z " /><path fill="rgb(211,211,211)" stroke="rgb(211,211,211)" stroke-width="1" opacity="1" d="M 323.5 281 L 336 281.5 L 323.5 282 L 323.5 281 Z " /><path fill="rgb(211,211,211)" stroke="rgb(211,211,211)" stroke-width="1" opacity="1" d="M 310.5 282 L 317 282.5 L 310.5 283 L 310.5 282 Z " /><path fill="rgb(211,211,211)" stroke="rgb(211,211,211)" stroke-width="1" opacity="1" d="M 36.5 283 L 37 285.5 L 36 285.5 L 36.5 283 Z " /><path fill="rgb(211,211,211)" stroke="rgb(211,211,211)" stroke-width="1" opacity="1" d="M 295.5 283 L 305 283.5 L 295.5 284 L 295.5 283 Z " /><path fill="rgb(211,211,211)" stroke="rgb(211,211,211)" stroke-width="1" opacity="1" d="M 392.5 283 Q 394.8 282.3 394 284.5 L 396.5 288 L 392.5 283 Z " /><path fill="rgb(211,211,211)" stroke="rgb(211,211,211)" stroke-width="1" opacity="1" d="M 280.5 284 L 293 284.5 L 280.5 285 L 280.5 284 Z " /><path fill="rgb(211,211,211)" stroke="rgb(211,211,211)" stroke-width="1" opacity="1" d="M 212.5 285 L 213 297.5 L 212 297.5 L 212.5 285 Z " /><path fill="rgb(211,211,211)" stroke="rgb(211,211,211)" stroke-width="1" opacity="1" d="M 269.5 285 L 275 285.5 L 269 286 L 268.5 288 L 268 286.5 L 269.5 285 Z " /><path fill="rgb(211,211,211)" stroke="rgb(211,211,211)" stroke-width="1" opacity="1" d="M 464.5 287 L 464 288.5 L 463.5 290 L 463 288.5 L 464.5 287 Z " /><path fill="rgb(211,211,211)" stroke="rgb(211,211,211)" stroke-width="1" opacity="1" d="M 398.5 288 L 402 290.5 L 400.5 290 L 398.5 288 Z " /><path fill="rgb(211,211,211)" stroke="rgb(211,211,211)" stroke-width="1" opacity="1" d="M 100.5 290 L 101 302.5 L 100 302.5 L 100.5 290 Z " /><path fill="rgb(211,211,211)" stroke="rgb(211,211,211)" stroke-width="1" opacity="1" d="M 270.5 291 L 276 297.5 L 271 293.5 L 270.5 291 Z " /><path fill="rgb(211,211,211)" stroke="rgb(211,211,211)" stroke-width="1" opacity="1" d="M 317.5 291 L 337 307.5 L 332.5 314 L 323.5 320 L 323.5 319 Q 331.7 315.7 336 308.5 L 331.5 303 L 317.5 292 L 306.5 299 L 307.5 297 L 317.5 291 Z " /><path fill="rgb(211,211,211)" stroke="rgb(211,211,211)" stroke-width="1" opacity="1" d="M 462.5 291 L 462 292.5 L 460.5 295 L 461 293.5 L 462.5 291 Z " /><path fill="rgb(211,211,211)" stroke="rgb(211,211,211)" stroke-width="1" opacity="1" d="M 67.5 292 L 68 304.5 L 67 304.5 L 67.5 292 Z " /><path fill="rgb(211,211,211)" stroke="rgb(211,211,211)" stroke-width="1" opacity="1" d="M 406.5 292 L 410 292.5 L 406.5 293 L 406.5 292 Z " /><path fill="rgb(211,211,211)" stroke="rgb(211,211,211)" stroke-width="1" opacity="1" d="M 413.5 292 L 421 292.5 L 413.5 293 L 413.5 292 Z " /><path fill="rgb(211,211,211)" stroke="rgb(211,211,211)" stroke-width="1" opacity="1" d="M 475.5 292 L 476 294.5 L 475 294.5 L 475.5 292 Z " /><path fill="rgb(211,211,211)" stroke="rgb(211,211,211)" stroke-width="1" opacity="1" d="M 239.5 294 L 243 300.5 L 241 299.5 L 239.5 294 Z " /><path fill="rgb(211,211,211)" stroke="rgb(211,211,211)" stroke-width="1" opacity="1" d="M 459.5 296 L 458 298.5 L 449.5 308 L 443.5 312 L 444.5 310 L 456 300.5 L 459.5 296 Z " /><path fill="rgb(211,211,211)" stroke="rgb(211,211,211)" stroke-width="1" opacity="1" d="M 41.5 297 L 42 299.5 L 41 299.5 L 41.5 297 Z " /><path fill="rgb(211,211,211)" stroke="rgb(211,211,211)" stroke-width="1" opacity="1" d="M 277.5 298 L 283 300.5 L 280.5 301 L 277.5 298 Z " /><path fill="rgb(211,211,211)" stroke="rgb(211,211,211)" stroke-width="1" opacity="1" d="M 302.5 299 L 305 299.5 L 302.5 300 L 302.5 299 Z " /><path fill="rgb(211,211,211)" stroke="rgb(211,211,211)" stroke-width="1" opacity="1" d="M 292.5 301 L 297 301.5 L 292.5 302 L 292.5 301 Z " /><path fill="rgb(211,211,211)" stroke="rgb(211,211,211)" stroke-width="1" opacity="1" d="M 243.5 302 L 246 305.5 L 243 303.5 L 243.5 302 Z " /><path fill="rgb(211,211,211)" stroke="rgb(211,211,211)" stroke-width="1" opacity="1" d="M 213.5 304 L 214 310.5 L 213 310.5 L 213.5 304 Z " /><path fill="rgb(211,211,211)" stroke="rgb(211,211,211)" stroke-width="1" opacity="1" d="M 172.5 306 L 193 324.5 L 187.5 320 Q 178 314.1 172.5 306 Z " /><path fill="rgb(211,211,211)" stroke="rgb(211,211,211)" stroke-width="1" opacity="1" d="M 68.5 307 L 69 316.5 L 68 316.5 L 68.5 307 Z " /><path fill="rgb(211,211,211)" stroke="rgb(211,211,211)" stroke-width="1" opacity="1" d="M 246.5 307 L 255.5 317 L 246.5 307 Z " /><path fill="rgb(211,211,211)" stroke="rgb(211,211,211)" stroke-width="1" opacity="1" d="M 101.5 308 L 102 315.5 L 101 315.5 L 101.5 308 Z " /><path fill="rgb(211,211,211)" stroke="rgb(211,211,211)" stroke-width="1" opacity="1" d="M 46.5 310 L 48 313.5 L 47 313.5 L 46.5 310 Z " /><path fill="rgb(211,211,211)" stroke="rgb(211,211,211)" stroke-width="1" opacity="1" d="M 382.5 310 L 390 314.5 L 388.5 315 Q 383.2 313.3 382.5 310 Z " /><path fill="rgb(211,211,211)" stroke="rgb(211,211,211)" stroke-width="1" opacity="1" d="M 441.5 312 L 440.5 314 L 437.5 315 L 437.5 314 L 441.5 312 Z " /><path fill="rgb(211,211,211)" stroke="rgb(211,211,211)" stroke-width="1" opacity="1" d="M 214.5 315 L 215 325.5 L 214 325.5 L 214.5 315 Z " /><path fill="rgb(211,211,211)" stroke="rgb(211,211,211)" stroke-width="1" opacity="1" d="M 431.5 316 L 434 316.5 L 428.5 318 L 428.5 317 L 431.5 316 Z " /><path fill="rgb(211,211,211)" stroke="rgb(211,211,211)" stroke-width="1" opacity="1" d="M 257.5 317 L 266 322.5 L 264.5 322 Q 258.5 320.9 257.5 317 Z " /><path fill="rgb(211,211,211)" stroke="rgb(211,211,211)" stroke-width="1" opacity="1" d="M 396.5 317 L 404 318.5 L 399.5 319 L 396.5 318 L 396.5 317 Z " /><path fill="rgb(211,211,211)" stroke="rgb(211,211,211)" stroke-width="1" opacity="1" d="M 423.5 318 L 427 318.5 L 423.5 319 L 423.5 318 Z " /><path fill="rgb(211,211,211)" stroke="rgb(211,211,211)" stroke-width="1" opacity="1" d="M 102.5 319 L 103 331.5 L 102 331.5 L 102.5 319 Z " /><path fill="rgb(211,211,211)" stroke="rgb(211,211,211)" stroke-width="1" opacity="1" d="M 405.5 319 L 421 319.5 L 405.5 320 L 405.5 319 Z " /><path fill="rgb(211,211,211)" stroke="rgb(211,211,211)" stroke-width="1" opacity="1" d="M 321.5 320 L 320.5 322 L 309.5 325 L 309.5 324 L 312.5 324 L 321.5 320 Z " /><path fill="rgb(211,211,211)" stroke="rgb(211,211,211)" stroke-width="1" opacity="1" d="M 463.5 320 L 463 321.5 L 461.5 324 L 462 322.5 L 463.5 320 Z " /><path fill="rgb(211,211,211)" stroke="rgb(211,211,211)" stroke-width="1" opacity="1" d="M 69.5 321 L 70 328.5 L 69 328.5 L 69.5 321 Z " /><path fill="rgb(211,211,211)" stroke="rgb(211,211,211)" stroke-width="1" opacity="1" d="M 267.5 323 L 272 324.5 L 269.5 325 L 267.5 323 Z " /><path fill="rgb(211,211,211)" stroke="rgb(211,211,211)" stroke-width="1" opacity="1" d="M 273.5 325 L 276 325.5 L 273.5 326 L 273.5 325 Z " /><path fill="rgb(211,211,211)" stroke="rgb(211,211,211)" stroke-width="1" opacity="1" d="M 304.5 325 L 307 325.5 Q 303.9 327.9 297.5 327 L 297.5 326 Q 303 327.5 304.5 325 Z " /><path fill="rgb(211,211,211)" stroke="rgb(211,211,211)" stroke-width="1" opacity="1" d="M 460.5 325 L 460 326.5 L 458.5 329 L 459 327.5 L 460.5 325 Z " /><path fill="rgb(211,211,211)" stroke="rgb(211,211,211)" stroke-width="1" opacity="1" d="M 195.5 326 L 204 333.5 L 202.5 333 L 195.5 326 Z " /><path fill="rgb(211,211,211)" stroke="rgb(211,211,211)" stroke-width="1" opacity="1" d="M 277.5 326 L 281 326.5 L 277.5 327 L 277.5 326 Z " /><path fill="rgb(211,211,211)" stroke="rgb(211,211,211)" stroke-width="1" opacity="1" d="M 283.5 327 L 293 327.5 L 283.5 328 L 283.5 327 Z " /><path fill="rgb(211,211,211)" stroke="rgb(211,211,211)" stroke-width="1" opacity="1" d="M 215.5 329 L 216 331.5 Q 215.3 333.8 211.5 333 L 211.5 332 Q 216.5 333.5 215.5 329 Z " /><path fill="rgb(211,211,211)" stroke="rgb(211,211,211)" stroke-width="1" opacity="1" d="M 56.5 330 L 58 332.5 L 57 332.5 L 56.5 330 Z " /><path fill="rgb(211,211,211)" stroke="rgb(211,211,211)" stroke-width="1" opacity="1" d="M 457.5 330 L 456.5 332 L 457.5 330 Z " /><path fill="rgb(211,211,211)" stroke="rgb(211,211,211)" stroke-width="1" opacity="1" d="M 103.5 334 L 104 339.5 Q 102.8 342.3 97.5 341 L 97.5 340 L 103 340 L 103.5 334 Z " /><path fill="rgb(211,211,211)" stroke="rgb(211,211,211)" stroke-width="1" opacity="1" d="M 70.5 335 L 71 342 L 79 342.5 L 70 343 L 70.5 335 Z " /><path fill="rgb(211,211,211)" stroke="rgb(211,211,211)" stroke-width="1" opacity="1" d="M 453.5 336 L 452 338.5 L 451.5 340 L 451 338.5 L 453.5 336 Z " /><path fill="rgb(211,211,211)" stroke="rgb(211,211,211)" stroke-width="1" opacity="1" d="M 84.5 341 L 89 341.5 L 84.5 342 L 84.5 341 Z " /><path fill="rgb(211,211,211)" stroke="rgb(211,211,211)" stroke-width="1" opacity="1" d="M 449.5 341 L 448.5 343 L 449.5 341 Z " /><path fill="rgb(211,211,211)" stroke="rgb(211,211,211)" stroke-width="1" opacity="1" d="M 444.5 347 L 443.5 349 L 444.5 347 Z " /><path fill="rgb(211,211,211)" stroke="rgb(211,211,211)" stroke-width="1" opacity="1" d="M 442.5 350 L 422.5 371 L 442.5 350 Z " /><path fill="rgb(211,211,211)" stroke="rgb(211,211,211)" stroke-width="1" opacity="1" d="M 70.5 361 L 71 363.5 L 70 363.5 L 70.5 361 Z " /><path fill="rgb(211,211,211)" stroke="rgb(211,211,211)" stroke-width="1" opacity="1" d="M 71.5 365 L 72 367.5 L 71 367.5 L 71.5 365 Z " /><path fill="rgb(211,211,211)" stroke="rgb(211,211,211)" stroke-width="1" opacity="1" d="M 420.5 371 L 419.5 373 L 420.5 371 Z " /><path fill="rgb(211,211,211)" stroke="rgb(211,211,211)" stroke-width="1" opacity="1" d="M 72.5 373 L 73 375.5 L 72 375.5 L 72.5 373 Z " /><path fill="rgb(211,211,211)" stroke="rgb(211,211,211)" stroke-width="1" opacity="1" d="M 414.5 376 L 411.5 380 L 408.5 382 L 410.5 379 L 414.5 376 Z " /><path fill="rgb(211,211,211)" stroke="rgb(211,211,211)" stroke-width="1" opacity="1" d="M 406.5 382 L 405.5 384 L 406.5 382 Z " /><path fill="rgb(211,211,211)" stroke="rgb(211,211,211)" stroke-width="1" opacity="1" d="M 402.5 385 L 401.5 387 L 402.5 385 Z " /><path fill="rgb(211,211,211)" stroke="rgb(211,211,211)" stroke-width="1" opacity="1" d="M 71.5 387 L 72 389.5 L 70.5 393 L 70 390.5 L 71.5 387 Z " /><path fill="rgb(211,211,211)" stroke="rgb(211,211,211)" stroke-width="1" opacity="1" d="M 394.5 390 L 393.5 392 L 394.5 390 Z " /><path fill="rgb(211,211,211)" stroke="rgb(211,211,211)" stroke-width="1" opacity="1" d="M 391.5 392 L 390.5 394 L 391.5 392 Z " /><path fill="rgb(211,211,211)" stroke="rgb(211,211,211)" stroke-width="1" opacity="1" d="M 68.5 396 L 69 398.5 L 68 398.5 L 68.5 396 Z " /><path fill="rgb(211,211,211)" stroke="rgb(211,211,211)" stroke-width="1" opacity="1" d="M 380.5 398 L 382 398.5 L 379.5 400 L 380.5 398 Z " /><path fill="rgb(211,211,211)" stroke="rgb(211,211,211)" stroke-width="1" opacity="1" d="M 376.5 400 L 378 400.5 L 373.5 403 L 374.5 401 L 376.5 400 Z " /><path fill="rgb(211,211,211)" stroke="rgb(211,211,211)" stroke-width="1" opacity="1" d="M 61.5 412 L 61 413.5 L 59.5 416 L 60 414.5 L 61.5 412 Z " /><path fill="rgb(211,211,211)" stroke="rgb(211,211,211)" stroke-width="1" opacity="1" d="M 342.5 414 L 345 414.5 L 342.5 415 L 342.5 414 Z " /><path fill="rgb(211,211,211)" stroke="rgb(211,211,211)" stroke-width="1" opacity="1" d="M 335.5 416 L 338 416.5 L 335.5 417 L 335.5 416 Z " /><path fill="rgb(211,211,211)" stroke="rgb(211,211,211)" stroke-width="1" opacity="1" d="M 323.5 419 L 326 419.5 L 323.5 420 L 323.5 419 Z " /><path fill="rgb(211,211,211)" stroke="rgb(211,211,211)" stroke-width="1" opacity="1" d="M 307.5 422 L 311 422.5 L 307.5 423 L 307.5 422 Z " /><path fill="rgb(211,211,211)" stroke="rgb(211,211,211)" stroke-width="1" opacity="1" d="M 54.5 424 L 53.5 426 L 54.5 424 Z " /><path fill="rgb(211,211,211)" stroke="rgb(211,211,211)" stroke-width="1" opacity="1" d="M 292.5 424 L 298 424.5 L 292.5 425 L 292.5 424 Z " /><path fill="rgb(211,211,211)" stroke="rgb(211,211,211)" stroke-width="1" opacity="1" d="M 143.5 425 L 156 425.5 L 143.5 426 L 143.5 425 Z " /><path fill="rgb(211,211,211)" stroke="rgb(211,211,211)" stroke-width="1" opacity="1" d="M 171.5 425 L 192 425.5 L 171.5 426 L 171.5 425 Z " /><path fill="rgb(211,211,211)" stroke="rgb(211,211,211)" stroke-width="1" opacity="1" d="M 284.5 425 L 291 425.5 L 284.5 426 L 284.5 425 Z " /><path fill="rgb(211,211,211)" stroke="rgb(211,211,211)" stroke-width="1" opacity="1" d="M 206.5 426 L 210 426.5 L 206.5 427 L 206.5 426 Z " /><path fill="rgb(211,211,211)" stroke="rgb(211,211,211)" stroke-width="1" opacity="1" d="M 125.5 427 L 132 427.5 L 125.5 428 L 125.5 427 Z " /><path fill="rgb(211,211,211)" stroke="rgb(211,211,211)" stroke-width="1" opacity="1" d="M 227.5 427 L 261 427.5 L 227.5 428 L 227.5 427 Z " /><path fill="rgb(211,211,211)" stroke="rgb(211,211,211)" stroke-width="1" opacity="1" d="M 51.5 429 L 50.5 431 L 51.5 429 Z " /><path fill="rgb(211,211,211)" stroke="rgb(211,211,211)" stroke-width="1" opacity="1" d="M 109.5 430 L 113 430.5 L 109.5 431 L 109.5 430 Z " /><path fill="rgb(211,211,211)" stroke="rgb(211,211,211)" stroke-width="1" opacity="1" d="M 101.5 432 L 104 432.5 L 98.5 434 L 98.5 433 L 101.5 432 Z " /><path fill="rgb(211,211,211)" stroke="rgb(211,211,211)" stroke-width="1" opacity="1" d="M 44.5 440 L 45 441.5 L 43 442.5 L 44.5 440 Z " /><path fill="rgb(211,211,211)" stroke="rgb(211,211,211)" stroke-width="1" opacity="1" d="M 39.5 454 L 42 454.5 L 39.5 455 L 39.5 454 Z " /><path fill="rgb(255,255,255)" stroke="rgb(255,255,255)" stroke-width="1" opacity="1" d="M 247.5 53 L 284.5 53 L 301.5 56 L 309.5 56 L 314.5 58 L 324.5 59 L 328.5 61 L 333.5 61 L 336.5 63 L 348.5 66 L 373.5 77 L 396.5 90 L 422 109 Q 420.9 111.7 423.5 111 Q 450.3 134.2 467 167.5 L 475 186.5 L 475 190.5 L 480 204.5 L 480 210.5 L 483 220.5 L 484 248.5 L 483 249.5 L 483 264.5 Q 479.7 270.2 480 279.5 L 472 303.5 L 458 329.5 L 446 347 L 443 348.5 L 421.5 371 L 419 372.5 Q 419.8 374.8 417.5 374 Q 401.7 387.7 382.5 398 L 361.5 408 L 356.5 409 L 354.5 411 L 328.5 419 L 323.5 419 L 314.5 422 Q 306.1 421.1 301.5 424 L 292.5 424 L 291.5 425 L 275.5 426 L 274.5 427 L 210.5 427 L 209.5 426 L 192.5 426 L 191.5 425 L 143.5 425 L 135.5 427 L 125.5 427 L 115.5 430 L 109.5 430 Q 107.2 432.7 101.5 432 L 75.5 441 L 52.5 451 L 37 455 L 69 398.5 L 69 395.5 L 72 389.5 L 73 373.5 L 69 355.5 L 58 331.5 L 48 314.5 L 34 277.5 L 34 272.5 L 32 266.5 L 32 257.5 L 31 256.5 L 31 227.5 L 32 226.5 L 32 216.5 L 34 210.5 L 34 204.5 L 42 177.5 L 50 158.5 L 66 133 Q 68.7 134.1 68 131.5 Q 78.7 117.5 93 109 Q 91.9 106.3 94.5 107 L 104.5 99 L 133.5 82 L 165.5 69 L 207.5 58 L 236.5 55 L 237.5 54 L 246.5 54 L 247.5 53 Z M 190 171 L 189 172 L 174 172 L 171 173 L 173 210 L 174 211 L 174 228 L 175 229 L 175 240 L 176 241 L 176 255 L 177 256 L 177 270 L 178 271 L 178 273 L 98 203 Q 95 204 96 201 L 71 180 L 61 180 L 59 182 L 70 343 L 89 342 L 90 341 L 103 341 L 104 340 L 102 309 L 101 308 L 100 278 L 99 277 L 99 267 L 98 266 L 98 248 L 97 247 L 98 242 L 204 334 L 205 333 L 215 333 L 216 332 L 215 329 L 214 305 L 213 304 L 212 274 L 211 273 L 211 263 L 210 262 L 210 244 L 209 243 L 209 233 L 208 232 L 207 202 L 206 201 L 206 191 L 205 190 L 205 173 L 204 171 L 190 171 Z M 404 209 L 400 211 L 393 212 L 377 222 Q 362 234 358 257 L 358 273 Q 361 275 360 282 Q 364 293 371 302 L 387 314 L 406 320 L 421 320 L 431 318 Q 442 315 450 308 Q 464 296 469 275 L 469 256 L 468 251 L 466 244 L 458 230 Q 449 218 435 212 L 425 209 L 404 209 Z M 279 219 L 269 222 L 255 230 L 243 243 L 238 253 L 235 265 L 235 279 L 237 290 L 246 308 L 260 320 L 270 325 L 284 328 L 304 327 Q 306 324 313 325 L 325 320 L 333 314 L 337 308 L 319 291 L 306 299 L 292 302 L 287 302 L 277 298 Q 270 294 269 286 L 276 285 L 293 285 L 294 284 L 305 284 L 306 283 L 317 283 L 318 282 L 336 282 L 337 281 L 343 281 L 340 256 L 332 239 Q 324 228 312 222 L 302 219 L 279 219 Z " /><path fill="rgb(255,255,255)" stroke="rgb(255,255,255)" stroke-width="1" opacity="1" d="M 411.5 236 L 412.5 237 L 421.5 237 L 426.5 239 L 435 246.5 L 440 257.5 L 440 273.5 Q 436.5 282.5 429.5 288 L 421.5 292 L 410.5 293 L 402.5 291 L 394 284.5 L 392 281.5 L 389 277.5 L 386 263.5 Q 388.5 262 387 256.5 L 390 249.5 L 397.5 241 L 405.5 237 Q 410.2 238.3 411.5 236 Z " /><path fill="rgb(255,255,255)" stroke="rgb(255,255,255)" stroke-width="1" opacity="1" d="M 283.5 245 L 296.5 245 Q 303.9 247.6 308 253.5 L 310 260 L 307.5 261 L 268 263 Q 268.6 252.8 275.5 248 L 283.5 245 Z " /><path fill="rgb(0,0,0)" stroke="rgb(0,0,0)" stroke-width="1" opacity="0" d="M 0 0 L 512 0 L 512 512 L 0 512 L 0 0 Z M 233 39 L 222 41 L 211 41 L 199 44 L 193 44 L 184 47 L 179 47 L 138 60 Q 95 77 65 106 Q 52 118 42 134 L 28 163 L 20 191 L 20 196 L 17 208 L 17 224 L 16 225 L 17 276 L 20 287 L 20 292 L 31 323 L 52 363 L 57 377 L 49 397 L 29 429 L 22 443 L 22 469 L 24 470 L 51 470 L 114 447 L 136 442 L 159 440 L 160 439 L 194 440 L 195 441 L 290 441 L 301 439 L 311 439 L 343 433 Q 402 417 442 380 Q 468 356 484 323 L 492 302 L 492 298 L 495 290 L 495 285 L 497 279 L 497 268 L 498 267 L 498 221 L 497 220 L 497 207 L 492 183 Q 481 144 457 118 L 455 115 L 435 95 L 433 92 L 398 68 L 368 54 L 348 47 L 319 41 L 310 41 L 300 39 L 233 39 Z " /><path fill="rgb(2,2,2)" stroke="rgb(2,2,2)" stroke-width="1" opacity="0.996078431372549" d="M 256.5 52 L 276 52.5 L 256.5 53 L 256.5 52 Z " /><path fill="rgb(2,2,2)" stroke="rgb(2,2,2)" stroke-width="1" opacity="0.996078431372549" d="M 234.5 53 L 244 53.5 L 234.5 54 L 234.5 53 Z " /><path fill="rgb(2,2,2)" stroke="rgb(2,2,2)" stroke-width="1" opacity="0.996078431372549" d="M 287.5 53 L 296 53.5 L 287.5 54 L 287.5 53 Z " /><path fill="rgb(2,2,2)" stroke="rgb(2,2,2)" stroke-width="1" opacity="0.996078431372549" d="M 227.5 54 L 230 54.5 L 227.5 55 L 227.5 54 Z " /><path fill="rgb(2,2,2)" stroke="rgb(2,2,2)" stroke-width="1" opacity="0.996078431372549" d="M 300.5 54 L 303 54.5 L 300.5 55 L 300.5 54 Z " /><path fill="rgb(2,2,2)" stroke="rgb(2,2,2)" stroke-width="1" opacity="0.996078431372549" d="M 212.5 56 L 217 56.5 L 212.5 57 L 212.5 56 Z " /><path fill="rgb(2,2,2)" stroke="rgb(2,2,2)" stroke-width="1" opacity="0.996078431372549" d="M 311.5 56 L 316 56.5 L 311.5 57 L 311.5 56 Z " /><path fill="rgb(2,2,2)" stroke="rgb(2,2,2)" stroke-width="1" opacity="0.996078431372549" d="M 198.5 59 L 201 59.5 L 198.5 60 L 198.5 59 Z " /><path fill="rgb(2,2,2)" stroke="rgb(2,2,2)" stroke-width="1" opacity="0.996078431372549" d="M 326.5 59 L 330 59.5 L 326.5 60 L 326.5 59 Z " /><path fill="rgb(2,2,2)" stroke="rgb(2,2,2)" stroke-width="1" opacity="0.996078431372549" d="M 188.5 61 L 192 61.5 L 188.5 62 L 188.5 61 Z " /><path fill="rgb(2,2,2)" stroke="rgb(2,2,2)" stroke-width="1" opacity="0.996078431372549" d="M 334.5 61 L 337 61.5 L 334.5 62 L 334.5 61 Z " /><path fill="rgb(2,2,2)" stroke="rgb(2,2,2)" stroke-width="1" opacity="0.996078431372549" d="M 177.5 64 L 180 64.5 L 177.5 65 L 177.5 64 Z " /><path fill="rgb(2,2,2)" stroke="rgb(2,2,2)" stroke-width="1" opacity="0.996078431372549" d="M 168.5 67 L 171 67.5 L 168.5 68 L 168.5 67 Z " /><path fill="rgb(2,2,2)" stroke="rgb(2,2,2)" stroke-width="1" opacity="0.996078431372549" d="M 357.5 69 L 361 70.5 L 359.5 71 L 357.5 69 Z " /><path fill="rgb(2,2,2)" stroke="rgb(2,2,2)" stroke-width="1" opacity="0.996078431372549" d="M 144.5 76 L 146 76.5 L 142.5 78 L 142.5 77 L 144.5 76 Z " /><path fill="rgb(2,2,2)" stroke="rgb(2,2,2)" stroke-width="1" opacity="0.996078431372549" d="M 375.5 77 L 378 78.5 L 376.5 79 L 375.5 77 Z " /><path fill="rgb(2,2,2)" stroke="rgb(2,2,2)" stroke-width="1" opacity="0.996078431372549" d="M 135.5 80 L 137 80.5 L 132.5 83 L 133.5 81 L 135.5 80 Z " /><path fill="rgb(2,2,2)" stroke="rgb(2,2,2)" stroke-width="1" opacity="0.996078431372549" d="M 380.5 80 L 384 81.5 L 382.5 82 L 380.5 80 Z " /><path fill="rgb(2,2,2)" stroke="rgb(2,2,2)" stroke-width="1" opacity="0.996078431372549" d="M 129.5 83 L 131 83.5 L 128.5 85 L 129.5 83 Z " /><path fill="rgb(2,2,2)" stroke="rgb(2,2,2)" stroke-width="1" opacity="0.996078431372549" d="M 388.5 84 L 392 86.5 L 390.5 86 L 388.5 84 Z " /><path fill="rgb(2,2,2)" stroke="rgb(2,2,2)" stroke-width="1" opacity="0.996078431372549" d="M 125.5 85 L 127 85.5 L 124.5 87 L 125.5 85 Z " /><path fill="rgb(2,2,2)" stroke="rgb(2,2,2)" stroke-width="1" opacity="0.996078431372549" d="M 118.5 89 L 117.5 91 L 118.5 89 Z " /><path fill="rgb(2,2,2)" stroke="rgb(2,2,2)" stroke-width="1" opacity="0.996078431372549" d="M 396.5 89 L 397.5 91 L 396.5 89 Z " /><path fill="rgb(2,2,2)" stroke="rgb(2,2,2)" stroke-width="1" opacity="0.996078431372549" d="M 402.5 93 L 403.5 95 L 402.5 93 Z " /><path fill="rgb(2,2,2)" stroke="rgb(2,2,2)" stroke-width="1" opacity="0.996078431372549" d="M 110.5 94 L 109.5 96 L 110.5 94 Z " /><path fill="rgb(2,2,2)" stroke="rgb(2,2,2)" stroke-width="1" opacity="0.996078431372549" d="M 406.5 96 L 407.5 98 L 406.5 96 Z " /><path fill="rgb(2,2,2)" stroke="rgb(2,2,2)" stroke-width="1" opacity="0.996078431372549" d="M 104.5 98 L 103.5 100 L 99.5 102 L 99.5 101 L 104.5 98 Z " /><path fill="rgb(2,2,2)" stroke="rgb(2,2,2)" stroke-width="1" opacity="0.996078431372549" d="M 413.5 101 L 419 105.5 L 417.5 105 L 413.5 101 Z " /><path fill="rgb(2,2,2)" stroke="rgb(2,2,2)" stroke-width="1" opacity="0.996078431372549" d="M 97.5 103 L 96.5 105 L 97.5 103 Z " /><path fill="rgb(2,2,2)" stroke="rgb(2,2,2)" stroke-width="1" opacity="0.996078431372549" d="M 94.5 105 L 91.5 109 L 94.5 105 Z " /><path fill="rgb(2,2,2)" stroke="rgb(2,2,2)" stroke-width="1" opacity="0.996078431372549" d="M 420.5 107 L 422.5 110 L 420.5 107 Z " /><path fill="rgb(2,2,2)" stroke="rgb(2,2,2)" stroke-width="1" opacity="0.996078431372549" d="M 89.5 109 L 85.5 114 L 89.5 109 Z " /><path fill="rgb(2,2,2)" stroke="rgb(2,2,2)" stroke-width="1" opacity="0.996078431372549" d="M 429.5 115 L 435.5 122 L 429.5 115 Z " /><path fill="rgb(2,2,2)" stroke="rgb(2,2,2)" stroke-width="1" opacity="0.996078431372549" d="M 81.5 116 L 69.5 129 L 81.5 116 Z " /><path fill="rgb(2,2,2)" stroke="rgb(2,2,2)" stroke-width="1" opacity="0.996078431372549" d="M 439.5 125 L 443 129.5 L 439 126.5 L 439.5 125 Z " /><path fill="rgb(2,2,2)" stroke="rgb(2,2,2)" stroke-width="1" opacity="0.996078431372549" d="M 67.5 131 L 64.5 135 L 67.5 131 Z " /><path fill="rgb(2,2,2)" stroke="rgb(2,2,2)" stroke-width="1" opacity="0.996078431372549" d="M 444.5 131 L 448 136.5 L 447 136.5 L 444 132.5 L 444.5 131 Z " /><path fill="rgb(2,2,2)" stroke="rgb(2,2,2)" stroke-width="1" opacity="0.996078431372549" d="M 63.5 136 L 61.5 139 L 63.5 136 Z " /><path fill="rgb(2,2,2)" stroke="rgb(2,2,2)" stroke-width="1" opacity="0.996078431372549" d="M 449.5 138 L 450.5 140 L 449.5 138 Z " /><path fill="rgb(2,2,2)" stroke="rgb(2,2,2)" stroke-width="1" opacity="0.996078431372549" d="M 60.5 140 L 59.5 142 L 60.5 140 Z " /><path fill="rgb(2,2,2)" stroke="rgb(2,2,2)" stroke-width="1" opacity="0.996078431372549" d="M 451.5 141 L 452.5 143 L 451.5 141 Z " /><path fill="rgb(2,2,2)" stroke="rgb(2,2,2)" stroke-width="1" opacity="0.996078431372549" d="M 58.5 143 L 57 145.5 L 56.5 147 L 56 145.5 L 58.5 143 Z " /><path fill="rgb(2,2,2)" stroke="rgb(2,2,2)" stroke-width="1" opacity="0.996078431372549" d="M 453.5 144 L 459 151.5 L 457 150.5 L 453.5 144 Z " /><path fill="rgb(2,2,2)" stroke="rgb(2,2,2)" stroke-width="1" opacity="0.996078431372549" d="M 54.5 149 L 54 150.5 L 53.5 152 L 53 150.5 L 54.5 149 Z " /><path fill="rgb(2,2,2)" stroke="rgb(2,2,2)" stroke-width="1" opacity="0.996078431372549" d="M 459.5 153 L 461 155.5 L 460 155.5 L 459.5 153 Z " /><path fill="rgb(2,2,2)" stroke="rgb(2,2,2)" stroke-width="1" opacity="0.996078431372549" d="M 50.5 157 L 49.5 159 L 50.5 157 Z " /><path fill="rgb(2,2,2)" stroke="rgb(2,2,2)" stroke-width="1" opacity="0.996078431372549" d="M 462.5 158 L 464 160.5 L 463 160.5 L 462.5 158 Z " /><path fill="rgb(2,2,2)" stroke="rgb(2,2,2)" stroke-width="1" opacity="0.996078431372549" d="M 464.5 162 L 467 166.5 L 466 166.5 L 464.5 162 Z " /><path fill="rgb(2,2,2)" stroke="rgb(2,2,2)" stroke-width="1" opacity="0.996078431372549" d="M 46.5 165 L 46 166.5 L 45.5 169 L 45 166.5 L 46.5 165 Z " /><path fill="rgb(2,2,2)" stroke="rgb(2,2,2)" stroke-width="1" opacity="0.996078431372549" d="M 467.5 168 L 469 170.5 L 468 170.5 L 467.5 168 Z " /><path fill="rgb(2,2,2)" stroke="rgb(2,2,2)" stroke-width="1" opacity="0.996078431372549" d="M 44.5 170 L 44 171.5 L 43.5 174 L 43 171.5 L 44.5 170 Z " /><path fill="rgb(2,2,2)" stroke="rgb(2,2,2)" stroke-width="1" opacity="0.996078431372549" d="M 201.5 171 L 204 172.5 L 206 209.5 L 205 209.5 L 203 172 L 201.5 171 Z " /><path fill="rgb(2,2,2)" stroke="rgb(2,2,2)" stroke-width="1" opacity="0.996078431372549" d="M 185.5 172 L 199 172.5 L 185.5 173 L 185.5 172 Z " /><path fill="rgb(2,2,2)" stroke="rgb(2,2,2)" stroke-width="1" opacity="0.996078431372549" d="M 173.5 173 L 178 173.5 L 173 174 L 172.5 186 L 172 174.5 L 173.5 173 Z " /><path fill="rgb(2,2,2)" stroke="rgb(2,2,2)" stroke-width="1" opacity="0.996078431372549" d="M 40.5 179 L 41 181.5 L 40 181.5 L 40.5 179 Z " /><path fill="rgb(2,2,2)" stroke="rgb(2,2,2)" stroke-width="1" opacity="0.996078431372549" d="M 60 181 L 64 181.5 L 61 182 L 60.5 192 L 60 181 Z " /><path fill="rgb(2,2,2)" stroke="rgb(2,2,2)" stroke-width="1" opacity="0.996078431372549" d="M 70.5 181 L 177.5 274 L 178 257.5 L 177 256.5 L 176 232.5 L 177 232.5 L 178 255.5 L 179 256.5 L 179 272.5 L 180 275 L 177.5 275 L 166 266 Q 167.1 263.3 164.5 264 L 150 252 Q 151.1 249.3 148.5 250 L 142 245 Q 143.1 242.3 140.5 243 L 120 226 Q 121.1 223.3 118.5 224 L 97.5 205 L 96 205 Q 97.1 202.3 94.5 203 L 72.5 184 L 70.5 181 Z " /><path fill="rgb(2,2,2)" stroke="rgb(2,2,2)" stroke-width="1" opacity="0.996078431372549" d="M 473.5 181 L 475 185.5 L 474 185.5 L 473.5 181 Z " /><path fill="rgb(2,2,2)" stroke="rgb(2,2,2)" stroke-width="1" opacity="0.996078431372549" d="M 37.5 188 L 38 190.5 L 37 190.5 L 37.5 188 Z " /><path fill="rgb(2,2,2)" stroke="rgb(2,2,2)" stroke-width="1" opacity="0.996078431372549" d="M 173.5 190 L 175 211.5 L 176 212.5 L 176 228.5 L 175 228.5 L 173.5 190 Z " /><path fill="rgb(2,2,2)" stroke="rgb(2,2,2)" stroke-width="1" opacity="0.996078431372549" d="M 61.5 194 L 63 215.5 L 64 216.5 L 64 235.5 L 66 246.5 L 67 276.5 L 68 277.5 L 68 287.5 L 69 288.5 L 69 306.5 L 68 306.5 L 66 263.5 L 65 262.5 L 64 236.5 L 63 235.5 L 63 220.5 L 62 219.5 L 62 207.5 L 61 206.5 L 61.5 194 Z " /><path fill="rgb(2,2,2)" stroke="rgb(2,2,2)" stroke-width="1" opacity="0.996078431372549" d="M 35.5 196 L 36 198.5 L 35 198.5 L 35.5 196 Z " /><path fill="rgb(2,2,2)" stroke="rgb(2,2,2)" stroke-width="1" opacity="0.996078431372549" d="M 479.5 200 L 480 202.5 L 479 202.5 L 479.5 200 Z " /><path fill="rgb(2,2,2)" stroke="rgb(2,2,2)" stroke-width="1" opacity="0.996078431372549" d="M 32.5 209 L 33 213.5 L 32 213.5 L 32.5 209 Z " /><path fill="rgb(2,2,2)" stroke="rgb(2,2,2)" stroke-width="1" opacity="0.996078431372549" d="M 481.5 209 L 482 211.5 L 481 211.5 L 481.5 209 Z " /><path fill="rgb(2,2,2)" stroke="rgb(2,2,2)" stroke-width="1" opacity="0.996078431372549" d="M 403.5 210 L 425.5 210 L 432.5 212 Q 447.8 217.7 457 229.5 L 464 241.5 L 462 240.5 Q 459.1 231.4 452.5 226 L 449.5 224 Q 443 216.5 432.5 213 Q 427.2 213.8 425.5 211 L 403.5 211 L 403.5 210 Z " /><path fill="rgb(2,2,2)" stroke="rgb(2,2,2)" stroke-width="1" opacity="0.996078431372549" d="M 398.5 211 L 402 211.5 L 395.5 213 L 395.5 212 L 398.5 211 Z " /><path fill="rgb(2,2,2)" stroke="rgb(2,2,2)" stroke-width="1" opacity="0.996078431372549" d="M 206.5 212 L 208 238.5 L 209 239.5 L 210 267.5 L 211 268.5 L 211 281.5 L 212 282.5 L 212 297.5 L 213 298.5 L 213 310.5 L 214 311.5 L 214 324.5 L 213 324.5 L 213 313.5 L 212 312.5 L 212 301.5 L 211 300.5 L 211 282.5 L 210 281.5 L 209 258.5 L 208 257.5 L 208 240.5 L 207 239.5 L 207 229.5 L 206 228.5 L 206.5 212 Z " /><path fill="rgb(2,2,2)" stroke="rgb(2,2,2)" stroke-width="1" opacity="0.996078431372549" d="M 390.5 214 L 392 214.5 Q 378.3 220.3 370 231.5 L 363 243.5 L 360.5 253 L 360 250.5 Q 364.6 233.1 376.5 223 L 390.5 214 Z " /><path fill="rgb(2,2,2)" stroke="rgb(2,2,2)" stroke-width="1" opacity="0.996078431372549" d="M 482.5 214 L 483 218.5 L 482 218.5 L 482.5 214 Z " /><path fill="rgb(2,2,2)" stroke="rgb(2,2,2)" stroke-width="1" opacity="0.996078431372549" d="M 286.5 219 L 296 219.5 L 292.5 221 Q 291.3 218.7 286.5 220 L 286.5 219 Z " /><path fill="rgb(2,2,2)" stroke="rgb(2,2,2)" stroke-width="1" opacity="0.996078431372549" d="M 278.5 220 L 284 220.5 L 278.5 221 L 278.5 220 Z " /><path fill="rgb(2,2,2)" stroke="rgb(2,2,2)" stroke-width="1" opacity="0.996078431372549" d="M 297.5 220 Q 320.8 222.8 331 238.5 L 336 247.5 L 334 246.5 Q 330.2 236.8 322.5 231 L 311.5 224 L 302.5 221 L 297.5 221 L 297.5 220 Z " /><path fill="rgb(2,2,2)" stroke="rgb(2,2,2)" stroke-width="1" opacity="0.996078431372549" d="M 274.5 221 L 273.5 223 L 268.5 224 L 268.5 223 L 274.5 221 Z " /><path fill="rgb(2,2,2)" stroke="rgb(2,2,2)" stroke-width="1" opacity="0.996078431372549" d="M 30.5 224 L 31 227.5 L 30 227.5 L 30.5 224 Z " /><path fill="rgb(2,2,2)" stroke="rgb(2,2,2)" stroke-width="1" opacity="0.996078431372549" d="M 265.5 224 L 267 224.5 Q 257.4 228.4 251 235.5 Q 251.8 237.8 249.5 237 L 243.5 245 L 244 243.5 L 254.5 231 L 265.5 224 Z " /><path fill="rgb(2,2,2)" stroke="rgb(2,2,2)" stroke-width="1" opacity="0.996078431372549" d="M 484.5 233 L 485 253.5 L 484 253.5 L 484.5 233 Z " /><path fill="rgb(2,2,2)" stroke="rgb(2,2,2)" stroke-width="1" opacity="0.996078431372549" d="M 29.5 235 L 30 247.5 L 29 247.5 L 29.5 235 Z " /><path fill="rgb(2,2,2)" stroke="rgb(2,2,2)" stroke-width="1" opacity="0.996078431372549" d="M 406.5 235 L 421.5 235 L 429 238 L 428.5 240 Q 421.8 233.7 406.5 236 L 398.5 240 L 400.5 237 L 406.5 235 Z " /><path fill="rgb(2,2,2)" stroke="rgb(2,2,2)" stroke-width="1" opacity="0.996078431372549" d="M 95 240 L 97.5 240 L 109 249 Q 107.9 251.7 110.5 251 L 144.5 281 L 146 281 Q 144.9 283.7 147.5 283 L 168.5 302 L 170 302 Q 168.9 304.7 171.5 304 L 204 332.5 L 202.5 332 L 103.5 246 L 96 241 L 95.5 244 L 95 240 Z " /><path fill="rgb(2,2,2)" stroke="rgb(2,2,2)" stroke-width="1" opacity="0.996078431372549" d="M 395.5 240 L 397 240.5 Q 384.8 248.3 385.5 269 L 385 258.5 Q 387.5 246.5 395.5 240 Z " /><path fill="rgb(2,2,2)" stroke="rgb(2,2,2)" stroke-width="1" opacity="0.996078431372549" d="M 430.5 240 L 440 251.5 Q 443.6 258.4 442 270.5 L 441 270.5 L 441 258.5 L 439 251.5 L 430.5 240 Z " /><path fill="rgb(2,2,2)" stroke="rgb(2,2,2)" stroke-width="1" opacity="0.996078431372549" d="M 285.5 243 L 295 243.5 L 285.5 244 L 285.5 243 Z " /><path fill="rgb(2,2,2)" stroke="rgb(2,2,2)" stroke-width="1" opacity="0.996078431372549" d="M 464.5 243 L 468 253.5 L 468 261.5 L 467 261.5 L 467 253.5 L 464 245.5 L 464.5 243 Z " /><path fill="rgb(2,2,2)" stroke="rgb(2,2,2)" stroke-width="1" opacity="0.996078431372549" d="M 281.5 244 L 284 244.5 L 281.5 245 L 281.5 244 Z " /><path fill="rgb(2,2,2)" stroke="rgb(2,2,2)" stroke-width="1" opacity="0.996078431372549" d="M 296.5 244 Q 304.8 245.7 309 251.5 L 308.5 253 L 302.5 247 L 296.5 245 L 296.5 244 Z " /><path fill="rgb(2,2,2)" stroke="rgb(2,2,2)" stroke-width="1" opacity="0.996078431372549" d="M 96.5 245 L 99 285.5 L 98 285.5 L 98 275.5 L 97 274.5 L 97 264.5 L 96 263.5 L 96.5 245 Z " /><path fill="rgb(2,2,2)" stroke="rgb(2,2,2)" stroke-width="1" opacity="0.996078431372549" d="M 278.5 245 L 280 245.5 L 271 251.5 Q 267.2 254.7 267.5 262 L 267 256.5 L 273.5 248 Q 276.1 248.7 275 246 L 277.5 246 L 278.5 245 Z " /><path fill="rgb(2,2,2)" stroke="rgb(2,2,2)" stroke-width="1" opacity="0.996078431372549" d="M 242.5 246 L 243 247.5 L 238.5 258 L 238 255.5 L 242.5 246 Z " /><path fill="rgb(2,2,2)" stroke="rgb(2,2,2)" stroke-width="1" opacity="0.996078431372549" d="M 336.5 249 L 339 256.5 L 338 256.5 L 336.5 249 Z " /><path fill="rgb(2,2,2)" stroke="rgb(2,2,2)" stroke-width="1" opacity="0.996078431372549" d="M 309.5 254 L 312 261 Q 308.3 262.4 310 256.5 L 309.5 254 Z " /><path fill="rgb(2,2,2)" stroke="rgb(2,2,2)" stroke-width="1" opacity="0.996078431372549" d="M 30.5 255 L 31 258.5 L 30 258.5 L 30.5 255 Z " /><path fill="rgb(2,2,2)" stroke="rgb(2,2,2)" stroke-width="1" opacity="0.996078431372549" d="M 359.5 255 L 360 272.5 L 359 272.5 L 359.5 255 Z " /><path fill="rgb(2,2,2)" stroke="rgb(2,2,2)" stroke-width="1" opacity="0.996078431372549" d="M 339.5 258 L 341 266.5 L 340 266.5 L 339.5 258 Z " /><path fill="rgb(2,2,2)" stroke="rgb(2,2,2)" stroke-width="1" opacity="0.996078431372549" d="M 237.5 259 L 238 262.5 L 237 262.5 L 237.5 259 Z " /><path fill="rgb(2,2,2)" stroke="rgb(2,2,2)" stroke-width="1" opacity="0.996078431372549" d="M 302.5 261 L 306 261.5 L 302.5 262 L 302.5 261 Z " /><path fill="rgb(2,2,2)" stroke="rgb(2,2,2)" stroke-width="1" opacity="0.996078431372549" d="M 288.5 262 L 296 262.5 L 288.5 263 L 288.5 262 Z " /><path fill="rgb(2,2,2)" stroke="rgb(2,2,2)" stroke-width="1" opacity="0.996078431372549" d="M 272.5 263 L 285 263.5 L 272.5 264 L 272.5 263 Z " /><path fill="rgb(2,2,2)" stroke="rgb(2,2,2)" stroke-width="1" opacity="0.996078431372549" d="M 236.5 264 L 237 280.5 L 243 299.5 L 242 299.5 L 239 293.5 L 236 280.5 L 236.5 264 Z " /><path fill="rgb(2,2,2)" stroke="rgb(2,2,2)" stroke-width="1" opacity="0.996078431372549" d="M 468.5 266 L 468 267.5 L 467.5 276 L 467 267.5 L 468.5 266 Z " /><path fill="rgb(2,2,2)" stroke="rgb(2,2,2)" stroke-width="1" opacity="0.996078431372549" d="M 482.5 266 L 483 270.5 L 482 270.5 L 482.5 266 Z " /><path fill="rgb(2,2,2)" stroke="rgb(2,2,2)" stroke-width="1" opacity="0.996078431372549" d="M 32.5 269 L 33 272.5 L 32 272.5 L 32.5 269 Z " /><path fill="rgb(2,2,2)" stroke="rgb(2,2,2)" stroke-width="1" opacity="0.996078431372549" d="M 386.5 270 Q 388.5 282 396.5 288 L 406 292.5 L 403.5 293 Q 394.8 289.8 390 282.5 L 386 273.5 L 386.5 270 Z " /><path fill="rgb(2,2,2)" stroke="rgb(2,2,2)" stroke-width="1" opacity="0.996078431372549" d="M 341.5 272 L 342 280 L 338.5 281 L 297.5 283 L 297.5 282 L 307.5 282 L 308.5 281 L 318.5 281 L 319.5 280 L 338.5 280 L 341 279 L 341.5 272 Z " /><path fill="rgb(2,2,2)" stroke="rgb(2,2,2)" stroke-width="1" opacity="0.996078431372549" d="M 439 275 L 441 275.5 L 434 287 L 432 287 Q 433.1 289.7 430.5 289 Q 423.7 296.2 407.5 294 L 407.5 293 Q 429.1 295.1 436 282.5 L 439 275 Z " /><path fill="rgb(2,2,2)" stroke="rgb(2,2,2)" stroke-width="1" opacity="0.996078431372549" d="M 360.5 276 L 363 284.5 L 362 284.5 L 360.5 276 Z " /><path fill="rgb(2,2,2)" stroke="rgb(2,2,2)" stroke-width="1" opacity="0.996078431372549" d="M 466.5 278 L 467 280.5 Q 461.8 297.3 449.5 307 Q 437.5 319 413.5 319 L 413.5 318 L 422.5 318 L 433.5 315 L 442.5 311 L 451 305 L 457 296 Q 459.7 297.1 459 294.5 L 464 286.5 L 466.5 278 Z " /><path fill="rgb(2,2,2)" stroke="rgb(2,2,2)" stroke-width="1" opacity="0.996078431372549" d="M 479.5 281 L 480 283.5 L 479 283.5 L 479.5 281 Z " /><path fill="rgb(2,2,2)" stroke="rgb(2,2,2)" stroke-width="1" opacity="0.996078431372549" d="M 35.5 282 L 36 284.5 L 35 284.5 L 35.5 282 Z " /><path fill="rgb(2,2,2)" stroke="rgb(2,2,2)" stroke-width="1" opacity="0.996078431372549" d="M 277.5 283 L 295 283.5 L 269.5 285 L 268 286.5 Q 269.8 294.2 275.5 298 L 280 300.5 L 278.5 301 L 272 296.5 L 267 288.5 L 267 285.5 L 268.5 284 L 276.5 284 L 277.5 283 Z " /><path fill="rgb(2,2,2)" stroke="rgb(2,2,2)" stroke-width="1" opacity="0.996078431372549" d="M 37.5 288 L 39 292.5 L 38 292.5 L 37.5 288 Z " /><path fill="rgb(2,2,2)" stroke="rgb(2,2,2)" stroke-width="1" opacity="0.996078431372549" d="M 364.5 288 Q 369.7 299.8 379.5 307 Q 386.9 313.6 398 316.5 L 395.5 317 L 381.5 310 L 373 303 L 365 291.5 L 364.5 288 Z " /><path fill="rgb(2,2,2)" stroke="rgb(2,2,2)" stroke-width="1" opacity="0.996078431372549" d="M 99.5 289 L 103 340 L 101 339.5 L 102 334.5 L 101 333.5 L 101 317.5 L 100 316.5 L 100 306.5 L 99 305.5 L 99.5 289 Z " /><path fill="rgb(2,2,2)" stroke="rgb(2,2,2)" stroke-width="1" opacity="0.996078431372549" d="M 317.5 292 L 336 307.5 L 327.5 317 L 319.5 321 L 319.5 320 Q 328.5 316.5 334 309.5 L 334 307.5 L 327.5 301 L 324.5 299 L 317.5 293 L 305.5 301 L 301.5 301 L 301.5 300 L 304.5 300 L 317.5 292 Z " /><path fill="rgb(2,2,2)" stroke="rgb(2,2,2)" stroke-width="1" opacity="0.996078431372549" d="M 243.5 301 L 255.5 315 L 266.5 322 L 275 324.5 L 272.5 325 Q 255.5 319.5 246 306.5 L 243.5 301 Z " /><path fill="rgb(2,2,2)" stroke="rgb(2,2,2)" stroke-width="1" opacity="0.996078431372549" d="M 281.5 301 Q 287 303.5 296.5 302 L 298.5 301 L 298.5 302 L 296.5 303 L 283.5 303 L 281.5 301 Z " /><path fill="rgb(2,2,2)" stroke="rgb(2,2,2)" stroke-width="1" opacity="0.996078431372549" d="M 69.5 308 L 72 341 L 84 341.5 L 71 342 L 71 335.5 L 70 334.5 L 70 321.5 L 69 320.5 L 69.5 308 Z " /><path fill="rgb(2,2,2)" stroke="rgb(2,2,2)" stroke-width="1" opacity="0.996078431372549" d="M 468.5 311 L 469 312.5 L 464.5 320 L 465 318.5 L 468.5 311 Z " /><path fill="rgb(2,2,2)" stroke="rgb(2,2,2)" stroke-width="1" opacity="0.996078431372549" d="M 47.5 314 L 49 316.5 L 48 316.5 L 47.5 314 Z " /><path fill="rgb(2,2,2)" stroke="rgb(2,2,2)" stroke-width="1" opacity="0.996078431372549" d="M 399.5 317 L 411 318.5 L 404.5 319 L 399.5 318 L 399.5 317 Z " /><path fill="rgb(2,2,2)" stroke="rgb(2,2,2)" stroke-width="1" opacity="0.996078431372549" d="M 49.5 318 L 50.5 320 L 49.5 318 Z " /><path fill="rgb(2,2,2)" stroke="rgb(2,2,2)" stroke-width="1" opacity="0.996078431372549" d="M 316.5 321 L 318 321.5 L 314.5 323 L 314.5 322 L 316.5 321 Z " /><path fill="rgb(2,2,2)" stroke="rgb(2,2,2)" stroke-width="1" opacity="0.996078431372549" d="M 309.5 323 L 313 323.5 L 305.5 325 L 305.5 324 L 309.5 323 Z " /><path fill="rgb(2,2,2)" stroke="rgb(2,2,2)" stroke-width="1" opacity="0.996078431372549" d="M 462.5 323 L 461.5 325 L 462.5 323 Z " /><path fill="rgb(2,2,2)" stroke="rgb(2,2,2)" stroke-width="1" opacity="0.996078431372549" d="M 53.5 325 L 55 327.5 L 53 326.5 L 53.5 325 Z " /><path fill="rgb(2,2,2)" stroke="rgb(2,2,2)" stroke-width="1" opacity="0.996078431372549" d="M 276.5 325 L 297 326.5 L 281.5 327 L 276.5 326 L 276.5 325 Z " /><path fill="rgb(2,2,2)" stroke="rgb(2,2,2)" stroke-width="1" opacity="0.996078431372549" d="M 298.5 325 L 304 325.5 L 298.5 326 L 298.5 325 Z " /><path fill="rgb(2,2,2)" stroke="rgb(2,2,2)" stroke-width="1" opacity="0.996078431372549" d="M 214.5 326 L 215 331.5 L 214 331.5 L 214.5 326 Z " /><path fill="rgb(2,2,2)" stroke="rgb(2,2,2)" stroke-width="1" opacity="0.996078431372549" d="M 56.5 331 L 58 333.5 L 56 332.5 L 56.5 331 Z " /><path fill="rgb(2,2,2)" stroke="rgb(2,2,2)" stroke-width="1" opacity="0.996078431372549" d="M 457.5 331 L 456 333.5 L 454.5 336 L 455 334.5 L 457.5 331 Z " /><path fill="rgb(2,2,2)" stroke="rgb(2,2,2)" stroke-width="1" opacity="0.996078431372549" d="M 205.5 332 L 211 332.5 L 205.5 333 L 205.5 332 Z " /><path fill="rgb(2,2,2)" stroke="rgb(2,2,2)" stroke-width="1" opacity="0.996078431372549" d="M 58.5 335 L 60 337.5 L 59 337.5 L 58.5 335 Z " /><path fill="rgb(2,2,2)" stroke="rgb(2,2,2)" stroke-width="1" opacity="0.996078431372549" d="M 61.5 340 L 63 343.5 L 62 343.5 L 61.5 340 Z " /><path fill="rgb(2,2,2)" stroke="rgb(2,2,2)" stroke-width="1" opacity="0.996078431372549" d="M 91.5 340 L 97 340.5 L 91.5 341 L 91.5 340 Z " /><path fill="rgb(2,2,2)" stroke="rgb(2,2,2)" stroke-width="1" opacity="0.996078431372549" d="M 450.5 340 L 451 341.5 L 446.5 347 L 447 345.5 L 450.5 340 Z " /><path fill="rgb(2,2,2)" stroke="rgb(2,2,2)" stroke-width="1" opacity="0.996078431372549" d="M 63.5 345 L 66 349.5 L 64 348.5 L 63.5 345 Z " /><path fill="rgb(2,2,2)" stroke="rgb(2,2,2)" stroke-width="1" opacity="0.996078431372549" d="M 444.5 348 L 443.5 350 L 444.5 348 Z " /><path fill="rgb(2,2,2)" stroke="rgb(2,2,2)" stroke-width="1" opacity="0.996078431372549" d="M 440.5 353 L 426.5 368 L 440.5 353 Z " /><path fill="rgb(2,2,2)" stroke="rgb(2,2,2)" stroke-width="1" opacity="0.996078431372549" d="M 421.5 371 L 420.5 373 L 421.5 371 Z " /><path fill="rgb(2,2,2)" stroke="rgb(2,2,2)" stroke-width="1" opacity="0.996078431372549" d="M 418.5 374 L 417.5 376 L 413.5 379 L 416.5 375 L 418.5 374 Z " /><path fill="rgb(2,2,2)" stroke="rgb(2,2,2)" stroke-width="1" opacity="0.996078431372549" d="M 72.5 376 L 73 380.5 L 72 380.5 L 72.5 376 Z " /><path fill="rgb(2,2,2)" stroke="rgb(2,2,2)" stroke-width="1" opacity="0.996078431372549" d="M 407.5 382 L 406.5 384 L 407.5 382 Z " /><path fill="rgb(2,2,2)" stroke="rgb(2,2,2)" stroke-width="1" opacity="0.996078431372549" d="M 404.5 384 L 402.5 387 L 404.5 384 Z " /><path fill="rgb(2,2,2)" stroke="rgb(2,2,2)" stroke-width="1" opacity="0.996078431372549" d="M 400.5 387 L 399.5 389 L 398 388.5 L 400.5 387 Z " /><path fill="rgb(2,2,2)" stroke="rgb(2,2,2)" stroke-width="1" opacity="0.996078431372549" d="M 395.5 390 L 397 390.5 L 394.5 392 L 395.5 390 Z " /><path fill="rgb(2,2,2)" stroke="rgb(2,2,2)" stroke-width="1" opacity="0.996078431372549" d="M 392.5 392 L 391.5 394 L 392.5 392 Z " /><path fill="rgb(2,2,2)" stroke="rgb(2,2,2)" stroke-width="1" opacity="0.996078431372549" d="M 387.5 395 L 386.5 397 L 385 396.5 L 387.5 395 Z " /><path fill="rgb(2,2,2)" stroke="rgb(2,2,2)" stroke-width="1" opacity="0.996078431372549" d="M 67.5 397 L 68 399.5 L 67 399.5 L 67.5 397 Z " /><path fill="rgb(2,2,2)" stroke="rgb(2,2,2)" stroke-width="1" opacity="0.996078431372549" d="M 383.5 397 L 382.5 399 L 383.5 397 Z " /><path fill="rgb(2,2,2)" stroke="rgb(2,2,2)" stroke-width="1" opacity="0.996078431372549" d="M 65.5 403 L 65 404.5 L 64.5 406 L 64 404.5 L 65.5 403 Z " /><path fill="rgb(2,2,2)" stroke="rgb(2,2,2)" stroke-width="1" opacity="0.996078431372549" d="M 365.5 406 L 364.5 408 L 362 407.5 L 365.5 406 Z " /><path fill="rgb(2,2,2)" stroke="rgb(2,2,2)" stroke-width="1" opacity="0.996078431372549" d="M 63.5 407 L 63 408.5 L 61.5 412 L 61 410.5 L 63.5 407 Z " /><path fill="rgb(2,2,2)" stroke="rgb(2,2,2)" stroke-width="1" opacity="0.996078431372549" d="M 360.5 408 L 359.5 410 L 358 409.5 L 360.5 408 Z " /><path fill="rgb(2,2,2)" stroke="rgb(2,2,2)" stroke-width="1" opacity="0.996078431372549" d="M 349.5 412 L 352 412.5 L 349.5 413 L 349.5 412 Z " /><path fill="rgb(2,2,2)" stroke="rgb(2,2,2)" stroke-width="1" opacity="0.996078431372549" d="M 340.5 415 L 344 415.5 L 340.5 416 L 340.5 415 Z " /><path fill="rgb(2,2,2)" stroke="rgb(2,2,2)" stroke-width="1" opacity="0.996078431372549" d="M 57.5 418 L 57 419.5 L 55.5 422 L 56 420.5 L 57.5 418 Z " /><path fill="rgb(2,2,2)" stroke="rgb(2,2,2)" stroke-width="1" opacity="0.996078431372549" d="M 330.5 418 L 333 418.5 L 330.5 419 L 330.5 418 Z " /><path fill="rgb(2,2,2)" stroke="rgb(2,2,2)" stroke-width="1" opacity="0.996078431372549" d="M 320.5 420 L 324 420.5 L 320.5 421 L 320.5 420 Z " /><path fill="rgb(2,2,2)" stroke="rgb(2,2,2)" stroke-width="1" opacity="0.996078431372549" d="M 54.5 423 L 53.5 425 L 54.5 423 Z " /><path fill="rgb(2,2,2)" stroke="rgb(2,2,2)" stroke-width="1" opacity="0.996078431372549" d="M 304.5 423 L 309 423.5 L 304.5 424 L 304.5 423 Z " /><path fill="rgb(2,2,2)" stroke="rgb(2,2,2)" stroke-width="1" opacity="0.996078431372549" d="M 156.5 425 L 171 425.5 L 156.5 426 L 156.5 425 Z " /><path fill="rgb(2,2,2)" stroke="rgb(2,2,2)" stroke-width="1" opacity="0.996078431372549" d="M 291.5 425 L 294 425.5 L 291.5 426 L 291.5 425 Z " /><path fill="rgb(2,2,2)" stroke="rgb(2,2,2)" stroke-width="1" opacity="0.996078431372549" d="M 52.5 426 L 52 427.5 L 51.5 429 L 51 427.5 L 52.5 426 Z " /><path fill="rgb(2,2,2)" stroke="rgb(2,2,2)" stroke-width="1" opacity="0.996078431372549" d="M 137.5 426 L 146 426.5 L 137.5 427 L 137.5 426 Z " /><path fill="rgb(2,2,2)" stroke="rgb(2,2,2)" stroke-width="1" opacity="0.996078431372549" d="M 186.5 426 L 206 426.5 L 186.5 427 L 186.5 426 Z " /><path fill="rgb(2,2,2)" stroke="rgb(2,2,2)" stroke-width="1" opacity="0.996078431372549" d="M 277.5 426 L 287 426.5 L 277.5 427 L 277.5 426 Z " /><path fill="rgb(2,2,2)" stroke="rgb(2,2,2)" stroke-width="1" opacity="0.996078431372549" d="M 220.5 427 L 227 427.5 L 220.5 428 L 220.5 427 Z " /><path fill="rgb(2,2,2)" stroke="rgb(2,2,2)" stroke-width="1" opacity="0.996078431372549" d="M 261.5 427 L 266 427.5 L 261.5 428 L 261.5 427 Z " /><path fill="rgb(2,2,2)" stroke="rgb(2,2,2)" stroke-width="1" opacity="0.996078431372549" d="M 122.5 428 L 128 428.5 L 122.5 429 L 122.5 428 Z " /><path fill="rgb(2,2,2)" stroke="rgb(2,2,2)" stroke-width="1" opacity="0.996078431372549" d="M 49.5 431 L 49 432.5 L 48.5 434 L 48 432.5 L 49.5 431 Z " /><path fill="rgb(2,2,2)" stroke="rgb(2,2,2)" stroke-width="1" opacity="0.996078431372549" d="M 107.5 431 L 111 431.5 L 107.5 432 L 107.5 431 Z " /><path fill="rgb(2,2,2)" stroke="rgb(2,2,2)" stroke-width="1" opacity="0.996078431372549" d="M 97.5 434 L 100 434.5 L 97.5 435 L 97.5 434 Z " /><path fill="rgb(2,2,2)" stroke="rgb(2,2,2)" stroke-width="1" opacity="0.996078431372549" d="M 46.5 436 L 46 437.5 L 43.5 442 L 43 440.5 L 46.5 436 Z " /><path fill="rgb(2,2,2)" stroke="rgb(2,2,2)" stroke-width="1" opacity="0.996078431372549" d="M 90.5 436 L 93 436.5 L 90.5 437 L 90.5 436 Z " /><path fill="rgb(2,2,2)" stroke="rgb(2,2,2)" stroke-width="1" opacity="0.996078431372549" d="M 85.5 438 L 87 438.5 L 82.5 440 L 82.5 439 L 85.5 438 Z " /><path fill="rgb(2,2,2)" stroke="rgb(2,2,2)" stroke-width="1" opacity="0.996078431372549" d="M 77.5 441 L 79 441.5 L 74.5 443 L 74.5 442 L 77.5 441 Z " /><path fill="rgb(2,2,2)" stroke="rgb(2,2,2)" stroke-width="1" opacity="0.996078431372549" d="M 42.5 443 L 41 445.5 L 40.5 447 L 40 445.5 L 42.5 443 Z " /><path fill="rgb(2,2,2)" stroke="rgb(2,2,2)" stroke-width="1" opacity="0.996078431372549" d="M 61.5 447 L 64 447.5 L 61.5 448 L 61.5 447 Z " /><path fill="rgb(2,2,2)" stroke="rgb(2,2,2)" stroke-width="1" opacity="0.996078431372549" d="M 39.5 448 L 39 449.5 L 36.5 454 L 37 452.5 L 39.5 448 Z " /><path fill="rgb(2,2,2)" stroke="rgb(2,2,2)" stroke-width="1" opacity="0.996078431372549" d="M 56.5 449 L 58 449.5 L 53.5 451 L 53.5 450 L 56.5 449 Z " /><path fill="rgb(2,2,2)" stroke="rgb(2,2,2)" stroke-width="1" opacity="0.996078431372549" d="M 47.5 452 L 50 452.5 L 47.5 453 L 47.5 452 Z " /><path fill="rgb(2,2,2)" stroke="rgb(2,2,2)" stroke-width="1" opacity="0.996078431372549" d="M 37.5 455 L 40 455.5 L 37.5 456 L 37.5 455 Z " /><path fill="rgb(0,0,0)" stroke="rgb(0,0,0)" stroke-width="1" opacity="1" d="M 232.5 39 L 299.5 39 L 309.5 41 L 318.5 41 L 347.5 47 L 367.5 54 L 397.5 68 L 433 92 L 434.5 95 L 455 114.5 L 457 117.5 Q 480.7 143.8 492 182.5 L 497 206.5 L 497 219.5 L 498 220.5 L 498 266.5 L 497 267.5 L 497 278.5 L 495 284.5 L 495 289.5 L 492 297.5 L 492 301.5 L 484 322.5 Q 467.6 356.1 441.5 380 Q 402.4 416.9 342.5 433 L 310.5 439 L 300.5 439 L 289.5 441 L 194.5 441 L 193.5 440 L 159.5 439 L 158.5 440 L 135.5 442 L 113.5 447 L 50.5 470 L 23.5 470 L 22 468.5 L 22 442.5 L 29 428.5 L 49 396.5 L 57 376.5 L 52 362.5 L 31 322.5 L 20 291.5 L 20 286.5 L 17 275.5 L 16 224.5 L 17 223.5 L 17 207.5 L 20 195.5 L 20 190.5 L 28 162.5 L 42 133.5 Q 51.6 118.1 64.5 106 Q 94.9 76.9 137.5 60 L 178.5 47 L 183.5 47 L 192.5 44 L 198.5 44 L 210.5 41 L 221.5 41 L 232.5 39 Z M 257 52 L 256 53 L 235 53 L 222 56 L 213 56 L 204 59 L 199 59 Q 195 62 189 61 L 182 64 L 178 64 L 136 80 L 126 85 L 123 88 L 119 89 L 101 101 Q 98 100 99 103 L 95 105 L 82 116 L 61 139 L 53 151 L 45 167 L 45 170 L 40 180 L 40 184 L 37 189 Q 38 194 35 197 L 35 202 L 32 210 L 32 218 L 30 225 L 30 235 L 29 236 L 30 259 L 35 285 L 45 311 L 67 353 L 72 371 L 72 385 L 67 398 L 67 401 L 51 428 L 51 430 L 48 433 L 48 435 L 40 446 L 36 455 L 36 456 L 40 456 L 46 453 L 56 451 L 68 445 L 77 443 L 82 440 L 85 440 L 96 435 L 100 435 L 106 432 L 111 432 L 119 429 L 128 429 L 134 427 L 146 427 L 147 426 L 186 426 L 187 427 L 220 427 L 221 428 L 287 427 L 300 424 L 309 424 L 318 421 L 324 421 L 340 416 L 344 416 L 349 413 L 360 410 L 362 408 L 365 408 L 396 391 Q 398 392 397 389 L 400 389 L 418 376 L 419 373 L 423 371 Q 425 372 424 370 L 441 354 Q 440 351 443 352 L 445 349 Q 444 346 447 347 L 466 319 L 475 299 L 483 271 L 483 263 L 485 254 L 485 234 L 483 224 L 483 215 L 475 184 L 464 160 L 445 133 Q 446 130 443 131 L 440 127 Q 441 124 439 125 L 436 122 L 429 115 L 427 112 L 421 107 Q 418 108 419 106 L 387 83 Q 383 84 384 81 L 380 80 L 359 69 L 330 59 L 325 59 L 316 56 L 309 56 L 296 53 L 257 52 Z " /><path fill="rgb(0,0,0)" stroke="rgb(0,0,0)" stroke-width="1" opacity="1" d="M 199.5 172 L 203 172.5 L 203 186.5 L 204 187.5 L 205 209.5 L 206 210.5 L 206 228.5 L 207 229.5 L 207 239.5 L 208 240.5 L 208 257.5 L 209 258.5 L 209 270.5 L 210 271.5 L 210 281.5 L 211 282.5 L 211 300.5 L 212 301.5 L 212 312.5 L 213 313.5 L 214 332 L 205.5 332 L 204.5 333 L 175.5 307 L 170 304 Q 171.1 301.3 168.5 302 Q 158.5 290.4 146 283 Q 147.1 280.3 144.5 281 L 116.5 256 L 109 251 Q 110.1 248.3 107.5 249 L 97.5 240 L 95 240 L 96 244.5 L 96 263.5 L 97 264.5 L 97 274.5 L 98 275.5 L 98 285.5 L 99 286.5 L 99 305.5 L 100 306.5 L 102 338.5 L 100.5 340 L 91.5 340 L 90.5 341 L 72 341 L 70 308.5 L 69 307.5 L 69 288.5 L 68 287.5 L 68 277.5 L 67 276.5 L 66 246.5 L 64 235.5 L 64 216.5 L 63 215.5 L 61 182 L 69.5 181 L 89.5 199 L 96 203 Q 94.9 205.7 97.5 205 L 113.5 220 L 120 224 Q 118.9 226.7 121.5 226 L 136.5 240 L 142 243 Q 140.9 245.7 143.5 245 L 150 250 Q 148.9 252.7 151.5 252 L 166 264 Q 164.9 266.7 167.5 266 L 177.5 275 L 180 275 L 179 272.5 L 179 256.5 L 178 255.5 L 178 242.5 L 176 231.5 L 176 212.5 L 175 211.5 L 175 201.5 L 174 200.5 L 174 190.5 L 173 189.5 L 173 174 L 178.5 173 L 198.5 173 L 199.5 172 Z " /><path fill="rgb(0,0,0)" stroke="rgb(0,0,0)" stroke-width="1" opacity="1" d="M 402.5 211 L 425.5 211 L 439.5 216 L 451 224 Q 449.9 226.7 452.5 226 L 464 242.5 Q 464 249.5 467 253.5 L 468 266.5 L 467 267.5 L 467 277.5 L 459 296 Q 456.3 294.9 457 297.5 L 451 305 L 442.5 311 L 433.5 315 L 422.5 318 Q 415 316.5 411.5 319 L 410.5 318 L 398.5 317 L 386.5 312 L 370 297.5 L 363 285.5 Q 363.3 278.7 360 275.5 L 360 253.5 Q 365.4 232.4 380.5 221 L 394.5 213 L 402.5 211 Z M 407 235 L 396 240 Q 387 246 385 259 Q 384 274 390 283 Q 396 291 408 294 Q 424 296 431 289 Q 433 290 432 287 L 434 287 L 440 279 L 440 277 L 440 275 L 442 271 Q 444 258 440 252 L 431 240 Q 428 241 429 238 L 422 235 L 407 235 Z " /><path fill="rgb(0,0,0)" stroke="rgb(0,0,0)" stroke-width="1" opacity="1" d="M 284.5 220 L 293.5 221 L 296.5 220 L 306.5 222 L 317.5 227 L 329 237.5 L 336 248.5 L 336 251.5 L 339 257.5 Q 338 264.5 341 267.5 L 341 279 L 338.5 280 L 319.5 280 L 318.5 281 L 308.5 281 L 307.5 282 L 297.5 282 L 296.5 283 L 277.5 283 L 276.5 284 L 268.5 284 L 267 285.5 L 267 288.5 L 273.5 298 L 283.5 303 L 296.5 303 Q 298.8 299.8 305.5 301 L 318.5 293 L 326 299 Q 324.9 301.7 327.5 301 L 334 307.5 L 334 309.5 Q 326.1 318.6 313.5 323 L 297.5 326 L 282.5 326 L 266.5 322 Q 256 317 249 308.5 L 243 300.5 L 239 289.5 L 237 280.5 L 237 263.5 Q 239.7 246.7 249.5 237 Q 251.8 237.8 251 235.5 Q 257.8 228.3 267.5 224 Q 273.5 224.5 275.5 221 L 283.5 221 L 284.5 220 Z M 286 243 L 278 246 L 275 246 Q 276 249 274 248 L 267 257 L 267 264 L 285 264 L 286 263 L 296 263 L 297 262 L 312 261 L 309 252 Q 303 242 286 243 Z " /></svg>